<?xml version="1.0" encoding="UTF-8" standalone="no"?>
<svg
   version="1.0"
   width="1024pt"
   height="300pt"
   viewBox="0 0 1024 300"
   preserveAspectRatio="xMidYMid"
   id="svg3"
   sodipodi:docname="espadas-separador.svg"
   inkscape:version="1.4 (e7c3feb100, 2024-10-09)"
   inkscape:export-filename="LOGO-ESGRIMA-PALETA-COLORES-03.png"
   inkscape:export-xdpi="96"
   inkscape:export-ydpi="96"
   xmlns:inkscape="http://www.inkscape.org/namespaces/inkscape"
   xmlns:sodipodi="http://sodipodi.sourceforge.net/DTD/sodipodi-0.dtd"
   xmlns="http://www.w3.org/2000/svg"
   xmlns:svg="http://www.w3.org/2000/svg">
  <defs
     id="defs3" />
  <sodipodi:namedview
     id="namedview3"
     pagecolor="#ffffff"
     bordercolor="#000000"
     borderopacity="0.25"
     inkscape:showpageshadow="2"
     inkscape:pageopacity="0.0"
     inkscape:pagecheckerboard="0"
     inkscape:deskcolor="#d1d1d1"
     inkscape:document-units="pt"
     inkscape:zoom="0.41949939"
     inkscape:cx="631.70534"
     inkscape:cy="603.09981"
     inkscape:window-width="1920"
     inkscape:window-height="1012"
     inkscape:window-x="0"
     inkscape:window-y="0"
     inkscape:window-maximized="1"
     inkscape:current-layer="svg3" />
  <g
     inkscape:groupmode="layer"
     id="layer1"
     inkscape:label="paleta colores"
     style="display:none;fill:#61304b;fill-opacity:1;stroke:#000000;stroke-width:1.6;stroke-dasharray:12.8, 1.6;stroke-dashoffset:0;stroke-opacity:1"
     transform="matrix(0.99246854,0,0,0.86409252,5.1704674,138.71011)"
     sodipodi:insensitive="true">
    <rect
       fill="#ff595e"
       x="-1.9746915"
       y="875.59381"
       width="205.71803"
       height="151.09383"
       id="rect1"
       style="stroke:#000000;stroke-width:1.6;stroke-dasharray:12.8, 1.6;stroke-dashoffset:0;stroke-opacity:1" />
    <rect
       fill="#5c0029"
       x="203.74333"
       y="875.59381"
       width="205.71803"
       height="151.09383"
       id="rect2"
       style="stroke:#000000;stroke-width:1.6;stroke-dasharray:12.8, 1.6;stroke-dashoffset:0;stroke-opacity:1" />
    <rect
       fill="#61304b"
       x="409.46136"
       y="875.59381"
       width="205.71803"
       height="151.09383"
       id="rect3"
       style="stroke:#000000;stroke-width:1.6;stroke-dasharray:12.8, 1.6;stroke-dashoffset:0;stroke-opacity:1" />
    <rect
       fill="#94bfbe"
       x="615.17938"
       y="875.59381"
       width="205.71803"
       height="151.09383"
       id="rect4"
       style="stroke:#000000;stroke-width:1.6;stroke-dasharray:12.8, 1.6;stroke-dashoffset:0;stroke-opacity:1" />
    <rect
       fill="#acf7c1"
       x="820.8974"
       y="875.59381"
       width="205.71803"
       height="151.09383"
       id="rect5"
       style="display:inline;stroke:#000000;stroke-width:1.6;stroke-dasharray:12.8, 1.6;stroke-dashoffset:0;stroke-opacity:1" />
  </g>
  <g
     id="g1"
     transform="matrix(1.134356,0,0,1.134356,-74.773298,-408.43581)">
    <path
       id="path1"
       style="fill:#acf7c1;fill-opacity:1;stroke:#000000;stroke-width:0.0675158;stroke-dasharray:none;stroke-opacity:1"
       d="m 886.00925,377.25584 a 4.33025,4.4349552 79.305205 0 0 -5.2988,3.31568 4.33025,4.4349552 79.305205 0 0 3.34408,5.15362 4.33025,4.4349552 79.305205 0 0 5.30046,-3.31534 4.33025,4.4349552 79.305205 0 0 -3.34574,-5.15396 z m -7.28686,1.73226 c 0.0356,-0.0455 -0.0564,-0.0243 -0.39081,0.008 -0.92072,0.0709 -262.32271,74.63111 -278.75296,79.41867 l -30.0435,8.64768 c -0.0627,-0.19003 -224.90045,68.46584 -227.22803,68.89486 -2.37265,0.51243 -7.69574,1.98949 -11.8118,3.38068 l -7.52516,2.49909 1.43798,4.58173 c 1.16767,3.75775 1.6594,4.58426 2.60102,4.57675 0.63579,-0.0539 4.87763,-1.06381 9.47331,-2.322 l 235.43792,-71.74119 30.82377,-9.58354 c 17.00659,-5.24169 278.40017,-80.49456 278.77851,-80.88847 0.35745,-0.45724 -2.34593,0.36222 -3.42705,-3.79191 -0.73153,-2.81084 0.51995,-3.5438 0.6268,-3.68008 z M 277.33082,510.22358 c -2.74112,-0.60449 -5.16002,-0.61853 -7.77249,-0.17257 l -3.49214,0.64346 2.13367,7.78609 c 2.70978,10.18997 17.53418,55.10575 24.63113,74.62704 l 5.47896,15.27306 3.6785,-1.39778 c 12.51088,-4.78069 19.70849,-22.79253 16.8367,-42.27428 -0.26071,-1.89 -0.89733,-4.52458 -1.76752,-7.5047 -0.65258,-2.23509 -1.43578,-4.66364 -2.28892,-7.12102 -2.55933,-7.37219 -5.74624,-14.99248 -7.91118,-18.33366 -1.51729,-2.39663 -5.01975,-6.62899 -7.8021,-9.338 -4.11798,-4.11528 -6.21796,-5.63741 -12.01989,-8.47375 -3.9004,-1.9159 -6.96358,-3.10942 -9.70472,-3.71389 z m -22.36143,9.56133 c -1.15099,-0.77407 -2.39603,0.36248 -5.64187,4.22509 -5.01849,5.91788 -7.44643,15.71994 -7.25962,29.0473 0.12544,7.42075 0.14662,7.48298 4.11168,18.61568 3.79775,10.6259 4.1802,11.34674 8.0244,16.17265 7.55966,9.48186 14.25104,15.6734 19.18715,17.86684 3.71939,1.58755 10.76465,3.34805 12.08461,2.94661 0.198,-0.0602 -0.11049,-1.43183 -0.60898,-3.16237 -0.54366,-1.6471 -0.90638,-3.62837 -0.80636,-4.42556 0.0714,-0.71881 0.0564,-1.35404 -0.0867,-1.96296 -0.42933,-1.82673 -2.01475,-3.41067 -5.89523,-6.25626 -6.60303,-4.82343 -9.03401,-7.56792 -13.38461,-15.02818 -4.30878,-7.33359 -7.89008,-17.74677 -8.6304,-25.05023 -0.62793,-6.08286 0.49831,-13.88443 2.83831,-19.3363 1.57025,-3.82358 1.62013,-4.11662 0.15447,-7.01692 -0.76257,-1.65025 -2.06145,-4.04531 -2.89655,-5.25523 -0.43322,-0.65249 -0.80662,-1.12212 -1.1903,-1.38016 z m -17.75458,48.27098 -22.64523,7.30581 c -43.74886,14.21091 -62.17728,20.85911 -68.41379,24.847 l -2.34488,1.48121 2.09618,0.40878 c 1.22324,0.18572 5.58666,-0.23514 9.82492,-1.0361 8.38631,-1.43505 47.85443,-12.11468 70.68974,-19.05926 l 14.31997,-4.35449 -1.74159,-4.83807 z" />
    <path
       id="path1-3-6"
       style="fill:#acf7c1;fill-opacity:1;stroke:#000000;stroke-width:0.0675158;stroke-dasharray:none;stroke-opacity:1"
       d="m 147.2123,377.25584 a 4.4349552,4.33025 10.694795 0 1 5.2988,3.31568 4.4349552,4.33025 10.694795 0 1 -3.34408,5.15362 4.4349552,4.33025 10.694795 0 1 -5.30046,-3.31534 4.4349552,4.33025 10.694795 0 1 3.34574,-5.15396 z m 7.28686,1.73226 c -0.0356,-0.0455 0.0564,-0.0243 0.39081,0.008 0.92072,0.0709 262.32272,74.63111 278.75298,79.41867 l 30.0435,8.64768 c 0.0627,-0.19003 224.90044,68.46584 227.22802,68.89486 2.37265,0.51243 7.69574,1.98949 11.8118,3.38068 l 7.52516,2.49909 -1.43798,4.58173 c -1.16767,3.75775 -1.6594,4.58426 -2.60102,4.57675 -0.63579,-0.0539 -4.87762,-1.06381 -9.4733,-2.322 L 461.3012,476.93222 430.47743,467.34868 c -17.00659,-5.24169 -278.40018,-80.49456 -278.77852,-80.88847 -0.35745,-0.45724 2.34593,0.36222 3.42705,-3.79191 0.73153,-2.81084 -0.51995,-3.5438 -0.6268,-3.68008 z m 601.39158,131.23548 c 2.74112,-0.60449 5.16002,-0.61853 7.77249,-0.17257 l 3.49214,0.64346 -2.13367,7.78609 c -2.70978,10.18997 -17.53417,55.10575 -24.63113,74.62704 l -5.47896,15.27306 -3.6785,-1.39778 c -12.51088,-4.78069 -19.70849,-22.79253 -16.8367,-42.27428 0.26071,-1.89 0.89733,-4.52458 1.76752,-7.5047 0.65259,-2.23509 1.43578,-4.66364 2.28893,-7.12102 2.55932,-7.37219 5.74623,-14.99248 7.91118,-18.33366 1.51728,-2.39663 5.01974,-6.62899 7.8021,-9.338 4.11797,-4.11528 6.21795,-5.63741 12.01988,-8.47375 3.9004,-1.9159 6.96359,-3.10942 9.70472,-3.71389 z m 22.36144,9.56133 c 1.15098,-0.77407 2.39602,0.36248 5.64186,4.22509 5.0185,5.91788 7.44643,15.71994 7.25962,29.0473 -0.12544,7.42075 -0.14662,7.48298 -4.11167,18.61568 -3.79776,10.6259 -4.18021,11.34674 -8.02441,16.17265 -7.55966,9.48186 -14.25104,15.6734 -19.18715,17.86684 -3.71939,1.58755 -10.76465,3.34805 -12.08461,2.94661 -0.198,-0.0602 0.11049,-1.43183 0.60899,-3.16237 0.54365,-1.6471 0.90637,-3.62837 0.80635,-4.42556 -0.0714,-0.71881 -0.0564,-1.35404 0.0867,-1.96296 0.42933,-1.82673 2.01475,-3.41067 5.89523,-6.25626 6.60303,-4.82343 9.03401,-7.56792 13.38461,-15.02818 4.30878,-7.33359 7.89008,-17.74677 8.6304,-25.05023 0.62793,-6.08286 -0.49831,-13.88443 -2.83831,-19.3363 -1.57024,-3.82358 -1.62013,-4.11662 -0.15447,-7.01692 0.76257,-1.65025 2.06145,-4.04531 2.89655,-5.25523 0.43322,-0.65249 0.80662,-1.12212 1.1903,-1.38016 z m 17.75457,48.27098 22.64523,7.30581 c 43.74886,14.21091 62.17727,20.85911 68.41378,24.847 l 2.34488,1.48121 -2.09618,0.40878 c -1.22324,0.18572 -5.58666,-0.23514 -9.82492,-1.0361 -8.38631,-1.43505 -47.85442,-12.11468 -70.68973,-19.05926 l -14.31997,-4.35449 1.74159,-4.83807 z" />
  </g>
</svg>
