<?xml version="1.0" standalone="no"?>
<!DOCTYPE svg PUBLIC "-//W3C//DTD SVG 20010904//EN"
 "http://www.w3.org/TR/2001/REC-SVG-20010904/DTD/svg10.dtd">
<svg version="1.0" xmlns="http://www.w3.org/2000/svg"
 width="1024.000000pt" height="1024.000000pt" viewBox="0 0 1024.000000 1024.000000"
 preserveAspectRatio="xMidYMid meet">

<g transform="translate(0.000000,1024.000000) scale(0.100000,-0.100000)"
fill="#000000" stroke="none">
<path d="M0 5120 l0 -5120 5120 0 5120 0 0 5120 0 5120 -5120 0 -5120 0 0
-5120z m5063 3689 c33 -36 34 -53 2 -84 -35 -36 -96 -35 -124 1 -30 38 -26 68
11 99 38 32 71 28 111 -16z m1 -161 c3 -13 8 -227 11 -475 l7 -453 -54 0 c-29
0 -63 -3 -75 -6 l-23 -6 3 468 c1 258 6 475 10 482 5 7 30 12 62 12 49 0 55
-3 59 -22z m-316 -530 c2 -104 1 -117 -15 -122 -10 -2 -58 -12 -108 -21 -351
-63 -683 -203 -955 -404 -104 -77 -341 -317 -426 -431 -212 -285 -342 -589
-410 -962 -21 -117 -30 -428 -15 -558 28 -246 90 -458 199 -684 164 -337 387
-609 687 -837 84 -63 350 -211 469 -261 75 -31 76 -35 28 -75 -24 -20 -57 -60
-74 -89 -16 -30 -31 -54 -33 -54 -18 0 -239 101 -320 146 -257 143 -531 390
-744 672 -180 238 -318 531 -396 842 -62 249 -69 305 -69 540 0 416 76 755
246 1097 119 242 234 399 447 616 239 244 414 366 726 505 236 106 592 203
725 198 l35 -1 3 -117z m692 101 c101 -15 312 -76 450 -130 346 -136 612 -325
875 -626 149 -169 207 -251 312 -433 188 -327 299 -691 320 -1047 l6 -113
-121 0 c-67 0 -122 3 -122 8 -1 64 -26 265 -46 367 -35 171 -87 331 -167 501
-76 165 -118 236 -232 389 -158 213 -358 409 -540 528 -235 153 -554 274 -812
308 l-93 13 0 128 0 129 53 -6 c28 -3 81 -10 117 -16z m-12 -791 c42 -97 95
-327 122 -528 18 -128 22 -223 26 -540 3 -220 10 -406 16 -434 11 -48 10 -50
-19 -76 -17 -15 -72 -52 -124 -83 -202 -119 -420 -318 -681 -622 -231 -269
-368 -398 -516 -489 l-93 -58 -54 23 c-30 12 -55 27 -55 33 0 6 26 29 57 51
130 93 297 305 396 501 73 147 144 380 178 591 26 161 37 593 20 783 -24 258
-99 557 -191 758 -61 135 -68 159 -44 164 10 1 223 3 474 3 l455 0 33 -77z
m509 36 c49 -32 115 -217 154 -433 19 -102 22 -175 29 -596 5 -264 7 -481 6
-482 -5 -5 -369 -24 -373 -19 -2 2 -4 181 -3 397 0 217 -5 450 -11 519 -10
113 -95 577 -114 624 -8 19 -3 19 141 12 104 -5 156 -11 171 -22z m-1632 -89
c100 -197 160 -386 208 -650 31 -176 32 -187 32 -470 0 -306 -7 -380 -52 -583
-71 -327 -205 -586 -403 -782 -53 -52 -122 -110 -153 -129 l-58 -34 -36 19
c-101 53 -246 225 -342 404 -135 255 -188 513 -178 868 5 196 34 401 72 515 7
23 23 74 34 112 23 81 121 282 178 367 96 144 209 254 360 352 78 50 236 117
268 113 14 -1 34 -30 70 -102z m1978 -1718 c-6 -140 2 -186 48 -279 32 -62
116 -155 210 -230 78 -63 113 -107 97 -123 -2 -2 -26 3 -53 11 -41 13 -85 15
-245 10 -222 -6 -308 -21 -534 -91 -331 -103 -553 -218 -994 -516 -296 -201
-524 -324 -619 -336 l-53 -6 52 99 c50 95 52 103 56 190 l4 91 66 32 c36 18
100 58 141 89 101 76 333 308 457 457 363 439 735 679 1119 724 39 5 112 9
162 10 l93 1 -7 -133z m1107 8 c0 -75 -39 -304 -74 -437 -67 -257 -163 -471
-315 -698 -108 -161 -138 -197 -296 -359 -170 -174 -335 -301 -523 -402 -131
-71 -250 -125 -257 -117 -1 2 -10 28 -19 59 -8 30 -27 72 -41 93 -14 20 -25
41 -25 45 0 5 55 36 123 69 326 160 586 389 799 702 123 182 202 335 265 515
45 129 104 379 111 470 l7 90 85 7 c47 3 99 11 115 16 37 11 45 1 45 -53z
m-2305 -1387 c3 -35 5 -115 3 -178 l-3 -115 -72 -1 c-59 -1 -73 2 -77 15 -2 9
-6 72 -8 141 l-3 125 70 37 c39 21 73 38 77 38 3 0 9 -28 13 -62z m215 -469
c41 -10 117 -39 168 -65 77 -38 108 -60 174 -127 89 -90 122 -147 132 -223 l6
-51 -121 -6 c-158 -9 -867 -9 -1178 0 l-243 6 4 57 c14 194 241 375 533 424
113 20 423 11 525 -15z m-751 -674 c98 -69 148 -90 274 -116 124 -26 289 -28
397 -5 90 19 197 70 265 127 48 39 52 41 100 34 27 -3 67 -10 88 -16 45 -12
44 -24 -11 -107 -63 -96 -193 -174 -385 -232 -107 -32 -108 -32 -285 -28 -169
4 -181 6 -267 37 -169 61 -287 125 -340 183 -39 44 -95 133 -95 153 0 3 21 5
48 6 26 0 56 4 67 9 40 17 67 9 144 -45z m528 -795 c-13 -667 -28 -951 -58
-1055 l-11 -39 -15 27 c-8 16 -21 78 -28 140 -16 122 -35 714 -35 1060 l0 217
77 -2 76 -3 -6 -345z"/>
<path d="M5073 6281 c-87 -55 -101 -157 -32 -236 66 -74 172 -66 227 18 67
100 6 224 -115 234 -36 3 -56 -1 -80 -16z"/>
<path d="M4073 7241 c-142 -75 -227 -157 -343 -326 -115 -170 -201 -401 -241
-650 -18 -109 -18 -516 -1 -615 36 -199 105 -393 185 -522 55 -88 176 -232
199 -236 20 -4 141 109 207 192 56 72 144 233 161 295 6 24 23 69 36 100 30
67 87 318 105 456 17 137 17 534 1 665 -21 164 -58 313 -113 460 -56 152 -87
214 -109 217 -8 2 -48 -15 -87 -36z"/>
</g>
</svg>
