<?xml version="1.0" encoding="UTF-8" standalone="no"?>
<!-- Created with Inkscape (http://www.inkscape.org/) -->

<svg
   version="1.1"
   id="svg1"
   width="2048"
   height="2048"
   viewBox="0 0 2048 2048"
   sodipodi:docname="khushi-code-vectorizado-trayectos.svg"
   xml:space="preserve"
   inkscape:version="1.4 (e7c3feb100, 2024-10-09)"
   xmlns:inkscape="http://www.inkscape.org/namespaces/inkscape"
   xmlns:sodipodi="http://sodipodi.sourceforge.net/DTD/sodipodi-0.dtd"
   xmlns="http://www.w3.org/2000/svg"
   xmlns:svg="http://www.w3.org/2000/svg"><defs
     id="defs1" /><sodipodi:namedview
     id="namedview1"
     pagecolor="#ffffff"
     bordercolor="#000000"
     borderopacity="0.25"
     inkscape:showpageshadow="2"
     inkscape:pageopacity="0.0"
     inkscape:pagecheckerboard="0"
     inkscape:deskcolor="#d1d1d1"
     inkscape:zoom="0.19775391"
     inkscape:cx="1312.237"
     inkscape:cy="1122.6074"
     inkscape:window-width="1920"
     inkscape:window-height="1012"
     inkscape:window-x="0"
     inkscape:window-y="0"
     inkscape:window-maximized="1"
     inkscape:current-layer="g9" /><g
     inkscape:groupmode="layer"
     inkscape:label="Image"
     id="g1"><g
       transform="matrix(0.07822262,0,0,-0.07822262,228.30535,2179.6446)"
       fill="#000000"
       stroke="none"
       id="g12"
       style="display:inline;fill:#222335;fill-opacity:1"
       inkscape:label="Imagotipo"><g
         id="g10"
         inkscape:label="orejas"
         transform="translate(0,-257.86267)"><rect
           style="display:inline;opacity:1;fill:#222335;fill-opacity:1;fill-rule:evenodd;stroke:none;stroke-width:0.95171"
           id="rect6"
           width="11851.542"
           height="1515.4127"
           x="4247.5513"
           y="-20505.061"
           rx="511.5484"
           ry="456.46054"
           transform="scale(1,-1)"
           inkscape:label="barra-oscura-orejas" /><rect
           style="display:inline;opacity:1;fill:#147096;fill-opacity:1;fill-rule:evenodd;stroke:none;stroke-width:0.90086"
           id="rect7"
           width="10342.774"
           height="3111.7378"
           x="5001.9248"
           y="-21235.916"
           rx="517.15027"
           ry="593.66504"
           transform="scale(1,-1)"
           inkscape:label="barra-azul-oscuro" /><rect
           style="display:inline;opacity:1;fill:#259bbc;fill-opacity:1;fill-rule:evenodd;stroke:none;stroke-width:0.922055"
           id="rect8"
           width="10342.754"
           height="1629.9465"
           x="5001.9351"
           y="-21235.916"
           rx="446.42456"
           ry="490.95956"
           transform="scale(1,-1)"
           inkscape:label="barra-azul-clarito" /></g><rect
         style="opacity:1;fill:#222335;fill-opacity:1;fill-rule:evenodd;stroke:#000000;stroke-width:0.982571"
         id="rect1"
         width="8534.999"
         height="7631.5015"
         x="5882.3149"
         y="-23083.102"
         transform="scale(1,-1)"
         ry="1451.7218"
         rx="1317.3053"
         inkscape:label="base" /><g
         inkscape:groupmode="layer"
         id="layer1"
         inkscape:label="ojos-nariz-boca"
         transform="matrix(11.721031,0,0,-11.721031,-610.37696,33973.231)"
         style="display:inline"><text
           xml:space="preserve"
           style="font-style:normal;font-variant:normal;font-weight:normal;font-stretch:condensed;font-size:349.998px;font-family:Impact;-inkscape-font-specification:'Impact Condensed';text-align:start;writing-mode:lr-tb;direction:ltr;text-anchor:start;display:inline;opacity:1;fill:#ffffff;fill-opacity:1;fill-rule:evenodd;stroke:none;stroke-width:0.688329"
           x="681.78156"
           y="1201.1527"
           id="text9"
           transform="scale(0.91985802,1.0871243)"
           inkscape:label="ojo-izq"><tspan
             sodipodi:role="line"
             id="tspan9"
             style="font-style:normal;font-variant:normal;font-weight:normal;font-stretch:normal;font-family:Impact;-inkscape-font-specification:Impact;stroke-width:0.688329"
             x="681.78156"
             y="1201.1527">&lt;</tspan></text><text
           xml:space="preserve"
           style="font-style:normal;font-variant:normal;font-weight:normal;font-stretch:condensed;font-size:349.998px;font-family:Impact;-inkscape-font-specification:'Impact Condensed';text-align:start;writing-mode:lr-tb;direction:ltr;text-anchor:start;display:inline;opacity:1;fill:#ffffff;fill-opacity:1;fill-rule:evenodd;stroke:none;stroke-width:0.688329"
           x="-1314.4105"
           y="1197.4733"
           id="text8"
           transform="scale(-0.91985802,1.0871243)"
           inkscape:label="ojo-izq"><tspan
             sodipodi:role="line"
             id="tspan8"
             style="font-style:normal;font-variant:normal;font-weight:normal;font-stretch:normal;font-family:Impact;-inkscape-font-specification:Impact;stroke-width:0.688329"
             x="-1314.4105"
             y="1197.4733">&lt;</tspan></text><text
           xml:space="preserve"
           style="font-style:normal;font-variant:normal;font-weight:normal;font-stretch:normal;font-size:320.572px;font-family:Impact;-inkscape-font-specification:Impact;text-align:start;writing-mode:lr-tb;direction:ltr;text-anchor:start;opacity:1;fill:#ffffff;fill-opacity:1;fill-rule:evenodd;stroke:none;stroke-width:0.175128"
           x="1224.3665"
           y="993.01379"
           id="text10"
           transform="matrix(0.79277504,0.06215613,-0.0901887,1.2543208,0,0)"><tspan
             sodipodi:role="line"
             id="tspan10"
             x="1224.3665"
             y="993.01379"
             style="stroke-width:0.175128">/</tspan></text><path
           style="opacity:1;fill:none;fill-opacity:1;fill-rule:evenodd;stroke:#ffffff;stroke-width:40.7554;stroke-dasharray:none;stroke-opacity:1"
           d="m 728.94814,1322.8759 c 7.93129,79.8212 116.85771,122.5886 186.19425,123.3612 65.2075,0.7266 183.88391,-36.8534 191.10631,-124.2615"
           id="path10"
           sodipodi:nodetypes="csc" /></g></g><g
       id="g9"
       inkscape:label="Logotipo"
       transform="matrix(0.93408921,0,0,0.93408921,67.272979,166.27683)"><path
         style="font-weight:800;font-stretch:extra-expanded;font-size:291.869px;font-family:Agrandir;-inkscape-font-specification:'Agrandir Ultra-Bold Extra-Expanded';fill:#222335;fill-rule:evenodd;stroke-width:81.0748"
         d="m 440.36802,1104.457 h 76.1778 v -53.1201 l 31.52185,-26.5601 62.1681,79.6802 h 92.52247 L 600.60409,980.70458 702.1745,895.47884 h -95.73303 l -89.31191,76.46967 h -0.58374 v -76.46967 h -76.1778 z m 276.98349,0 h 76.1778 v -83.1826 h 115.28825 v 83.1826 h 76.17781 V 895.47884 h -76.17781 v 74.13472 H 793.52931 v -74.13472 h -76.1778 z m 428.17189,5.2537 c 84.642,0 134.2597,-36.1918 134.2597,-101.5704 V 895.47884 h -75.8859 v 108.57526 c 0,33.8568 -22.1821,50.4933 -58.0819,50.4933 -35.8999,0 -58.3738,-16.6365 -58.3738,-50.4933 V 895.47884 h -76.1778 v 112.66146 c 0,65.3786 49.9096,101.5704 134.2597,101.5704 z m 283.6966,0.8756 c 76.7616,0 126.3793,-29.4788 126.0874,-72.6754 0,-37.94297 -30.3544,-57.20632 -100.9866,-64.50304 l -38.8186,-4.08617 c -26.852,-2.62682 -38.5267,-7.58859 -38.5267,-15.46906 0.2918,-11.09102 22.182,-18.09587 51.9526,-18.38774 32.1056,-0.29187 66.5462,9.3398 89.312,24.51699 l 21.3064,-43.78035 c -25.6845,-16.63653 -67.1299,-27.14381 -111.2021,-27.14381 -74.4266,0 -125.2118,25.3926 -125.2118,70.34042 0,37.06737 28.3113,55.45516 94.2737,62.45996 l 38.5267,4.378 c 31.8137,3.5025 45.2397,9.048 45.2397,18.0959 0,10.7992 -18.6796,17.804 -48.1584,17.804 -39.986,0 -85.2257,-14.0097 -109.4509,-33.273 l -26.2682,45.2397 c 28.0195,21.5983 81.7234,36.4836 131.9248,36.4836 z m 146.5181,-6.1293 h 76.1778 v -83.1826 h 115.2883 v 83.1826 h 76.1778 V 895.47884 h -76.1778 v 74.13472 h -115.2883 v -74.13472 h -76.1778 z m 296.8308,0 h 75.5941 V 895.47884 h -75.5941 z"
         id="text12"
         inkscape:label="KHUSHI"
         transform="scale(0.84719334,1.1803681)"
         aria-label="KHUSHI" /><path
         style="font-weight:300;font-stretch:extra-expanded;font-size:255.462px;font-family:Agrandir;-inkscape-font-specification:'Agrandir Light Extra-Expanded';fill:#259bbc;fill-rule:evenodd;stroke-width:70.9618"
         d="m 911.27284,1485.5563 c 54.92433,0 98.86376,-28.3562 112.91416,-73.3175 l -14.0504,-4.8538 c -12.00668,39.3411 -50.58144,64.6319 -98.86376,64.6319 -63.09911,0 -103.20665,-32.1882 -103.20665,-82.5143 0,-50.5814 36.78653,-82.5142 95.03187,-82.5142 42.15123,0 76.38314,20.9479 88.13439,54.158 l 13.53945,-5.6202 c -14.30584,-38.0638 -53.90245,-62.3327 -101.67384,-62.3327 -67.44197,0 -110.10413,37.5529 -110.10413,96.3091 0,58.7563 45.98316,96.0537 118.27891,96.0537 z m 253.67396,0 c 72.5513,0 121.3445,-38.8302 121.3445,-96.0537 0,-57.2235 -48.7932,-96.3091 -121.3445,-96.3091 -72.2957,0 -121.3444,39.0856 -121.3444,96.3091 0,57.2235 49.0487,96.0537 121.3444,96.0537 z m 0,-13.5394 c -63.3545,0 -106.2722,-33.4656 -106.2722,-82.5143 0,-49.0487 42.9177,-82.5142 106.2722,-82.5142 63.3546,0 106.2722,33.4655 106.2722,82.5142 0,49.0487 -42.9176,82.5143 -106.2722,82.5143 z m 144.3362,7.1529 h 100.9075 c 67.442,0 104.7395,-31.9328 104.7395,-89.6672 0,-57.7344 -37.2975,-89.9226 -104.7395,-89.9226 H 1309.283 Z m 15.0723,-13.5395 V 1313.375 h 85.8352 c 57.479,0 89.6672,27.0789 89.6672,76.1276 0,48.7933 -32.1882,76.1277 -89.6672,76.1277 z m 213.5664,13.5395 h 175.2469 v -13.5395 h -160.4301 v -72.8067 h 147.657 v -13.5394 h -147.657 v -65.9092 h 157.8755 v -13.795 h -172.6923 z"
         id="text14"
         inkscape:label="CODE"
         transform="scale(0.96792947,1.0331331)"
         aria-label="CODE" /><path
         style="font-size:643.771px;font-family:'URW Gothic';-inkscape-font-specification:'URW Gothic';fill:#a531b4;fill-rule:evenodd;stroke-width:178.825;stroke-linecap:round;stroke-linejoin:round"
         d="m 231.0219,1098.0949 c 1.93131,-37.9825 7.72525,-43.1327 50.21413,-45.7078 v -43.1326 c -75.3212,-0.6438 -97.85319,19.9569 -99.7845,89.4841 v 109.4411 c -0.64377,40.5576 -9.65657,50.8579 -50.85791,57.2956 v 44.4202 c 41.20134,6.4377 50.21414,16.7381 50.85791,57.2956 v 109.4411 c 1.93131,69.5273 24.4633,90.1279 99.7845,89.4842 v -43.1327 c -41.20134,-2.5751 -48.92659,-9.6566 -50.21413,-45.7077 v -109.4411 c 0,-43.1327 -12.23165,-64.3771 -45.70774,-75.965 -1.93132,-0.6437 -6.43771,-1.9313 -11.58788,-3.8626 45.06397,-15.4505 56.65184,-32.1886 57.29562,-80.4714 z"
         id="text6"
         inkscape:label="LLAVE-IZQ"
         transform="scale(1.0253609,0.97526636)"
         aria-label="{" /><path
         style="font-size:643.771px;font-family:'URW Gothic';-inkscape-font-specification:'URW Gothic';fill:#a531b4;fill-rule:evenodd;stroke-width:178.825;stroke-linecap:round;stroke-linejoin:round"
         d="m 1761.7543,1477.276 c -1.9313,35.4074 -8.369,43.1326 -43.1326,45.0639 l -7.0815,0.6438 v 43.1327 c 75.3212,0.6437 98.497,-19.9569 99.7845,-89.4842 v -109.4411 c 0.6438,-40.5575 9.0128,-50.8579 48.9266,-57.2956 v -44.4202 c -39.9138,-6.4377 -48.2828,-16.738 -48.9266,-57.2956 v -109.4411 c -1.2875,-69.5272 -24.4633,-90.1279 -99.7845,-89.4841 v 43.1326 c 42.4889,3.2189 48.2828,7.7253 50.2141,45.7078 v 109.441 c 0,43.1327 12.2317,64.3771 45.7078,75.965 1.9313,0.6438 6.4377,1.9313 11.5879,4.5064 -45.064,14.8067 -56.6519,31.5448 -57.2957,79.8276 z"
         id="text4"
         inkscape:label="LLAVE-DRCH"
         transform="scale(1.0253609,0.97526636)"
         aria-label="}" /></g></g></svg>
