<?xml version="1.0" encoding="UTF-8" standalone="no"?>
<svg
   version="1.0"
   width="600"
   height="300"
   viewBox="0 0 449.99999 225"
   preserveAspectRatio="xMidYMid"
   id="svg3"
   sodipodi:docname="muxika-esgrima-completo.svg"
   inkscape:version="1.4 (e7c3feb100, 2024-10-09)"
   inkscape:export-filename="LOGO-ESGRIMA-PALETA-COLORES-03.png"
   inkscape:export-xdpi="96"
   inkscape:export-ydpi="96"
   xml:space="preserve"
   xmlns:inkscape="http://www.inkscape.org/namespaces/inkscape"
   xmlns:sodipodi="http://sodipodi.sourceforge.net/DTD/sodipodi-0.dtd"
   xmlns="http://www.w3.org/2000/svg"
   xmlns:svg="http://www.w3.org/2000/svg"><defs
     id="defs3" /><sodipodi:namedview
     id="namedview3"
     pagecolor="#ffffff"
     bordercolor="#000000"
     borderopacity="0.25"
     inkscape:showpageshadow="2"
     inkscape:pageopacity="0.0"
     inkscape:pagecheckerboard="0"
     inkscape:deskcolor="#d1d1d1"
     inkscape:document-units="pt"
     inkscape:zoom="0.59326172"
     inkscape:cx="189.62963"
     inkscape:cy="187.10123"
     inkscape:window-width="1920"
     inkscape:window-height="1012"
     inkscape:window-x="0"
     inkscape:window-y="0"
     inkscape:window-maximized="1"
     inkscape:current-layer="g1"><inkscape:page
       x="0"
       y="0"
       width="450"
       height="225"
       id="page2"
       margin="0"
       bleed="0" /></sodipodi:namedview><g
     id="g1"
     transform="matrix(0.80572899,0,0,0.80572899,30.398221,23.891282)"><path
       style="font-size:48px;font-family:Philosopher;-inkscape-font-specification:Philosopher;white-space:pre;inline-size:173.517;fill:#acf7c1;fill-rule:evenodd;stroke:#000000;stroke-width:0.0160162"
       d="m 227.46956,711.37484 q -3.456,0 -5.424,-1.104 -1.92,-1.056 -2.688,-3.312 -0.768,-2.304 -0.768,-5.904 v -18.48 l -12,26.64 h -0.96 l -12.48,-27.12 v 27.12 h -1.92 v -31.68 h 4.56 l 11.52,24.96 11.28,-24.96 h 4.32 v 23.52 q 0,4.368 1.104,6.864 1.104,2.496 3.456,2.496 z m 12.33598,-1.68 q -2.016,0 -3.888,-0.72 -1.872,-0.72 -3.072,-2.592 -1.2,-1.872 -1.2,-5.328 v -8.64 q 0,-2.16 -0.624,-3.456 -0.576,-1.344 -2.736,-1.344 h -0.48 v -0.96 h 3.84 q 1.68,0 2.592,0.432 0.96,0.432 1.344,1.68 0.384,1.248 0.384,3.648 v 8.64 q 0,2.4 0.768,3.84 0.768,1.392 1.968,2.016 1.248,0.624 2.544,0.624 1.44,0 2.64,-0.768 1.248,-0.768 2.16,-1.776 v -18.336 h 4.32 v 22.56 h -2.4 l -1.68,-1.92 h -0.24 q -0.912,0.912 -2.496,1.68 -1.584,0.72 -3.744,0.72 z m 15.83999,-0.48 7.68,-10.8 -4.176,-6.96 q -2.016,-3.504 -4.944,-3.84 v -0.96 h 4.08 q 1.632,0 2.976,1.056 1.392,1.008 2.448,2.784 l 2.976,5.04 6.24,-8.88 h 2.4 l -7.68,10.8 4.176,6.96 q 1.968,3.456 5.184,3.84 v 0.96 h -4.32 q -1.632,0 -3.024,-1.008 -1.344,-1.056 -2.4,-2.832 l -2.976,-5.04 -6.24,8.88 z m 27.60004,-25.44 q -1.104,0 -1.92,-0.912 -0.768,-0.912 -0.768,-2.16 0,-1.008 0.576,-1.584 0.624,-0.576 1.632,-0.576 1.104,0 1.872,0.912 0.816,0.912 0.816,2.16 0,1.008 -0.624,1.584 -0.576,0.576 -1.584,0.576 z m -1.824,25.44 v -16.8 q 0,-2.16 -0.624,-3.456 -0.576,-1.344 -2.736,-1.344 h -0.96 v -0.96 h 4.32 q 1.68,0 2.592,0.432 0.96,0.432 1.344,1.68 0.384,1.248 0.384,3.648 v 16.8 z m 28.656,0.48 q -1.824,0 -3.6,-0.816 -1.728,-0.864 -3.36,-3.024 l -5.76,-7.68 v 11.04 h -4.32 v -25.92 q 0,-2.16 -0.624,-3.456 -0.576,-1.344 -2.736,-1.344 h -0.96 v -0.96 h 4.32 q 1.68,0 2.592,0.432 0.96,0.432 1.344,1.68 0.384,1.248 0.384,3.648 v 14.16 l 6,-7.68 q 1.104,-1.392 2.496,-2.256 1.392,-0.864 3.744,-0.864 h 1.44 v 1.2 q -1.248,0 -2.448,0.528 -1.2,0.528 -2.112,1.632 l -5.28,6.72 6,7.68 q 1.392,1.824 2.592,2.736 1.248,0.912 2.688,1.152 v 0.912 q -0.384,0.192 -1.056,0.336 -0.624,0.144 -1.344,0.144 z m 11.61603,0 q -1.008,0 -2.208,-0.336 -1.152,-0.288 -2.256,-1.056 -1.104,-0.768 -1.824,-2.064 -0.672,-1.296 -0.672,-3.264 0,-2.64 1.68,-4.08 1.728,-1.44 4.512,-2.016 2.832,-0.624 6.048,-0.624 h 1.44 q 0,-3.36 -0.672,-5.088 -0.672,-1.776 -1.824,-2.4 -1.104,-0.672 -2.544,-0.672 -2.016,0 -3.408,0.864 -1.344,0.864 -1.872,3.216 h -2.16 q 0,-1.248 0.144,-2.304 0.144,-1.104 1.056,-2.016 0.912,-0.912 2.976,-1.296 2.064,-0.384 4.224,-0.384 1.632,0 3.12,0.384 1.536,0.384 2.688,1.44 1.2,1.008 1.872,3.024 0.72,1.968 0.72,5.232 v 12.96 h -2.4 l -1.68,-2.16 h -0.24 q -0.72,0.912 -2.352,1.776 -1.632,0.864 -4.368,0.864 z m 2.16,-2.16 q 1.776,0 2.784,-0.864 1.056,-0.912 1.776,-2.016 v -6.48 h -1.44 q -3.6,0 -5.664,1.344 -2.016,1.296 -2.016,3.456 0,2.352 1.392,3.456 1.392,1.104 3.168,1.104 z"
       id="text6"
       transform="matrix(2.2071414,0,0,2.2071414,-251.89131,-1449.8864)"
       aria-label="Muxika" /><path
       style="font-size:6.68474px;font-family:Quicksand;-inkscape-font-specification:Quicksand;white-space:pre;inline-size:173.517;fill:#acf7c1;fill-rule:evenodd;stroke-width:1.6"
       d="m 187.93047,704.53553 h 2.4533 q 0.0802,0 0.14038,0.0602 0.0602,0.0535 0.0602,0.14038 0,0.0869 -0.0602,0.14038 -0.0602,0.0535 -0.14038,0.0535 h -2.29955 l 0.0669,-0.11365 v 1.87842 l -0.0735,-0.0869 h 2.00543 q 0.0802,0 0.14038,0.0602 0.0602,0.0602 0.0602,0.14038 0,0.0869 -0.0602,0.14038 -0.0602,0.0535 -0.14038,0.0535 h -1.99206 l 0.0602,-0.0668 v 1.9252 l -0.0334,-0.0401 h 2.26613 q 0.0802,0 0.14038,0.0602 0.0602,0.0602 0.0602,0.14038 0,0.0869 -0.0602,0.14038 -0.0602,0.0535 -0.14038,0.0535 h -2.4533 q -0.0802,0 -0.14038,-0.0602 -0.0602,-0.0602 -0.0602,-0.14038 v -4.27823 q 0,-0.0802 0.0602,-0.14038 0.0602,-0.0602 0.14038,-0.0602 z m 3.30227,4.13785 q -0.0535,-0.0802 -0.0535,-0.15375 0.007,-0.0802 0.0869,-0.12701 0.0535,-0.0468 0.12033,-0.0401 0.0735,0.007 0.13369,0.0668 0.18049,0.23397 0.43451,0.38103 0.2607,0.14038 0.615,0.14038 0.18717,0 0.36766,-0.0602 0.18717,-0.0669 0.30749,-0.19386 0.12033,-0.1337 0.12033,-0.33424 0,-0.20722 -0.12033,-0.33423 -0.12032,-0.12701 -0.31418,-0.20055 -0.18717,-0.0735 -0.40108,-0.12701 -0.22728,-0.0602 -0.4412,-0.13369 -0.21391,-0.0802 -0.38103,-0.19386 -0.16043,-0.12032 -0.2607,-0.28744 -0.10027,-0.16712 -0.10027,-0.40777 0,-0.28076 0.15375,-0.49467 0.15375,-0.21391 0.41445,-0.33424 0.26739,-0.12033 0.60163,-0.12033 0.16712,0 0.36097,0.0468 0.19386,0.0401 0.38103,0.14038 0.18718,0.10027 0.33424,0.27407 0.0602,0.0602 0.0602,0.14038 0,0.0735 -0.0668,0.1337 -0.0535,0.0401 -0.12701,0.0401 -0.0669,0 -0.11364,-0.0535 -0.16044,-0.18049 -0.38104,-0.27408 -0.22059,-0.0936 -0.47461,-0.0936 -0.19386,0 -0.36766,0.0668 -0.16712,0.0602 -0.28076,0.18718 -0.11364,0.12701 -0.11364,0.33423 0.0134,0.19386 0.13369,0.31419 0.12701,0.12032 0.32756,0.20054 0.20722,0.0802 0.46124,0.14706 0.21391,0.0535 0.40777,0.12701 0.20054,0.0735 0.34761,0.18718 0.15375,0.10695 0.24065,0.27407 0.0936,0.16712 0.0936,0.42114 0,0.29413 -0.16711,0.50804 -0.16044,0.21391 -0.43451,0.32755 -0.27408,0.11364 -0.60831,0.11364 -0.36098,0 -0.7019,-0.14038 -0.33424,-0.14038 -0.59494,-0.46793 z m 4.83306,-2.95466 q 0.32087,0 0.58826,0.0735 0.26739,0.0668 0.42782,0.18717 0.16712,0.12032 0.16712,0.2607 0,0.0668 -0.0468,0.1337 -0.0468,0.0602 -0.12701,0.0602 -0.0802,0 -0.1337,-0.0401 -0.0468,-0.0401 -0.10027,-0.0936 -0.0468,-0.0535 -0.14038,-0.10027 -0.0869,-0.0401 -0.24733,-0.0735 -0.16044,-0.0334 -0.36766,-0.0334 -0.37435,0 -0.67516,0.18717 -0.30081,0.18718 -0.47462,0.50804 -0.1738,0.31419 -0.1738,0.70859 0,0.40108 0.16712,0.72195 0.16712,0.32087 0.46124,0.50804 0.29413,0.18049 0.68853,0.18049 0.26739,0 0.41446,-0.0468 0.14706,-0.0468 0.25402,-0.10695 0.12701,-0.0735 0.18048,-0.14038 0.0602,-0.0735 0.15375,-0.0735 0.0869,0 0.12701,0.0535 0.0468,0.0468 0.0468,0.12701 0,0.10696 -0.16044,0.24065 -0.15375,0.12701 -0.42782,0.22728 -0.27407,0.0936 -0.62837,0.0936 -0.50135,0 -0.88238,-0.23396 -0.37435,-0.23397 -0.58826,-0.63506 -0.20723,-0.40776 -0.20723,-0.9158 0,-0.48799 0.21392,-0.88907 0.21391,-0.40109 0.59494,-0.64174 0.38771,-0.24734 0.89575,-0.24734 z m 4.5122,0.10028 q 0.0869,0 0.14038,0.0602 0.0602,0.0602 0.0602,0.14038 v 1.88509 q 0,0.66179 -0.37434,1.0094 -0.37435,0.34761 -1.0094,0.34761 -0.62836,0 -1.00271,-0.34761 -0.36766,-0.34761 -0.36766,-1.0094 v -1.88509 q 0,-0.0802 0.0535,-0.14038 0.0602,-0.0602 0.14706,-0.0602 0.0869,0 0.14038,0.0602 0.0602,0.0602 0.0602,0.14038 v 1.88509 q 0,0.48131 0.25402,0.73533 0.26071,0.24733 0.71527,0.24733 0.46125,0 0.72195,-0.24733 0.26071,-0.25402 0.26071,-0.73533 v -1.88509 q 0,-0.0802 0.0535,-0.14038 0.0535,-0.0602 0.14706,-0.0602 z m 2.79422,3.46269 q -0.51472,0 -0.90912,-0.2206 -0.3944,-0.22059 -0.615,-0.61499 -0.22059,-0.3944 -0.22059,-0.9225 0,-0.5682 0.22059,-0.96928 0.22728,-0.40109 0.58157,-0.615 0.36098,-0.2206 0.76206,-0.2206 0.29413,0 0.56821,0.10696 0.28076,0.10027 0.49467,0.3075 0.22059,0.20054 0.34761,0.49467 0.13369,0.29413 0.14706,0.68184 -0.007,0.0802 -0.0668,0.14038 -0.0602,0.0535 -0.14038,0.0535 h -2.68058 l -0.0802,-0.36098 h 2.63379 l -0.0869,0.0802 v -0.13369 q -0.0267,-0.31419 -0.20054,-0.53478 -0.1738,-0.2206 -0.42114,-0.33424 -0.24734,-0.11364 -0.51473,-0.11364 -0.20054,0 -0.41445,0.0802 -0.20723,0.0802 -0.38103,0.25402 -0.16712,0.16712 -0.27407,0.4345 -0.10696,0.26071 -0.10696,0.62169 0,0.3944 0.16043,0.71526 0.16044,0.32087 0.46125,0.50804 0.3075,0.18718 0.72864,0.18718 0.23396,0 0.42114,-0.0668 0.18717,-0.0669 0.32755,-0.1738 0.14038,-0.11365 0.23396,-0.23397 0.0735,-0.0602 0.14707,-0.0602 0.0668,0 0.11364,0.0535 0.0535,0.0535 0.0535,0.12033 0,0.0802 -0.0669,0.14038 -0.20054,0.24065 -0.52141,0.42114 -0.32087,0.1738 -0.7019,0.1738 z m 2.6739,-0.26739 q 0,0.0802 -0.0602,0.14038 -0.0602,0.0602 -0.14038,0.0602 -0.0869,0 -0.14706,-0.0602 -0.0535,-0.0602 -0.0535,-0.14038 v -4.54562 q 0,-0.0802 0.0602,-0.14038 0.0602,-0.0602 0.14038,-0.0602 0.0869,0 0.14038,0.0602 0.0602,0.0602 0.0602,0.14038 z m 3.8972,-3.21536 q 0.0869,0 0.14038,0.0602 0.0602,0.0602 0.0602,0.14707 v 3.00813 q 0,0.0802 -0.0602,0.14038 -0.0602,0.0602 -0.14038,0.0602 -0.0869,0 -0.14706,-0.0602 -0.0535,-0.0602 -0.0535,-0.14038 v -0.79548 l 0.11364,-0.0535 q 0,0.18717 -0.10695,0.38103 -0.10028,0.19386 -0.28076,0.36098 -0.18049,0.16711 -0.42783,0.27407 -0.24065,0.10027 -0.52141,0.10027 -0.45456,0 -0.81553,-0.23396 -0.3543,-0.23397 -0.56152,-0.64174 -0.20055,-0.40777 -0.20055,-0.91581 0,-0.52141 0.20723,-0.91581 0.20723,-0.40108 0.56152,-0.62836 0.35429,-0.22729 0.80217,-0.22729 0.28744,0 0.53478,0.10028 0.25402,0.10027 0.44119,0.27407 0.18717,0.1738 0.28744,0.40108 0.10696,0.2206 0.10696,0.46125 l -0.14038,-0.10027 v -0.84896 q 0,-0.0869 0.0535,-0.14707 0.0602,-0.0602 0.14706,-0.0602 z m -1.39042,3.10841 q 0.35429,0 0.62836,-0.18049 0.27408,-0.18717 0.42783,-0.50804 0.16043,-0.32755 0.16043,-0.72864 0,-0.3944 -0.16043,-0.70858 -0.15375,-0.31418 -0.42783,-0.50136 -0.27407,-0.18717 -0.62836,-0.18717 -0.34761,0 -0.62837,0.18049 -0.27407,0.18049 -0.43451,0.49467 -0.15375,0.31418 -0.15375,0.72195 0,0.40109 0.15375,0.72864 0.16044,0.32087 0.43451,0.50804 0.27408,0.18049 0.62837,0.18049 z m 7.26632,-4.63921 q 0.0869,0 0.14038,0.0602 0.0602,0.0535 0.0602,0.14038 v 4.54562 q 0,0.0802 -0.0602,0.14038 -0.0602,0.0602 -0.14038,0.0602 -0.0869,0 -0.14706,-0.0602 -0.0535,-0.0602 -0.0535,-0.14038 v -0.79548 l 0.11364,-0.0936 q 0,0.18717 -0.10027,0.3944 -0.10027,0.20054 -0.28744,0.37435 -0.18049,0.1738 -0.42783,0.28076 -0.24065,0.10695 -0.52141,0.10695 -0.44788,0 -0.80885,-0.23396 -0.35429,-0.23397 -0.56152,-0.63506 -0.20723,-0.40108 -0.20723,-0.9158 0,-0.50804 0.20723,-0.90913 0.20723,-0.40777 0.56152,-0.63505 0.35429,-0.23397 0.80217,-0.23397 0.27407,0 0.52141,0.10028 0.24733,0.10027 0.43451,0.27407 0.19385,0.1738 0.30081,0.40108 0.11364,0.2206 0.11364,0.46125 l -0.14038,-0.10027 v -2.38645 q 0,-0.0802 0.0535,-0.14038 0.0602,-0.0602 0.14706,-0.0602 z m -1.39042,4.63921 q 0.36097,0 0.62836,-0.18049 0.27408,-0.18717 0.42782,-0.50136 0.16044,-0.32087 0.16044,-0.72863 0,-0.40109 -0.16044,-0.71527 -0.15374,-0.32087 -0.42782,-0.50136 -0.27407,-0.18717 -0.62836,-0.18717 -0.34761,0 -0.62837,0.18717 -0.27407,0.18049 -0.43451,0.50136 -0.15375,0.31418 -0.15375,0.71527 0,0.40108 0.15375,0.72195 0.16044,0.32087 0.43451,0.50804 0.28076,0.18049 0.62837,0.18049 z m 4.18465,0.37434 q -0.51473,0 -0.90913,-0.2206 -0.3944,-0.22059 -0.61499,-0.61499 -0.2206,-0.3944 -0.2206,-0.9225 0,-0.5682 0.2206,-0.96928 0.22728,-0.40109 0.58157,-0.615 0.36098,-0.2206 0.76206,-0.2206 0.29413,0 0.5682,0.10696 0.28076,0.10027 0.49467,0.3075 0.2206,0.20054 0.34761,0.49467 0.1337,0.29413 0.14707,0.68184 -0.007,0.0802 -0.0668,0.14038 -0.0602,0.0535 -0.14038,0.0535 h -2.68058 l -0.0802,-0.36098 h 2.63379 l -0.0869,0.0802 v -0.13369 q -0.0267,-0.31419 -0.20055,-0.53478 -0.1738,-0.2206 -0.42113,-0.33424 -0.24734,-0.11364 -0.51473,-0.11364 -0.20054,0 -0.41445,0.0802 -0.20723,0.0802 -0.38103,0.25402 -0.16712,0.16712 -0.27408,0.4345 -0.10695,0.26071 -0.10695,0.62169 0,0.3944 0.16043,0.71526 0.16043,0.32087 0.46125,0.50804 0.3075,0.18718 0.72863,0.18718 0.23397,0 0.42114,-0.0668 0.18718,-0.0669 0.32756,-0.1738 0.14037,-0.11365 0.23396,-0.23397 0.0735,-0.0602 0.14707,-0.0602 0.0668,0 0.11364,0.0535 0.0535,0.0535 0.0535,0.12033 0,0.0802 -0.0668,0.14038 -0.20055,0.24065 -0.52141,0.42114 -0.32087,0.1738 -0.7019,0.1738 z m 4.35846,-4.74616 h 2.4533 q 0.0802,0 0.14037,0.0602 0.0602,0.0535 0.0602,0.14038 0,0.0869 -0.0602,0.14038 -0.0602,0.0535 -0.14037,0.0535 h -2.29956 l 0.0668,-0.11365 v 1.87842 l -0.0735,-0.0869 h 2.00542 q 0.0802,0 0.14038,0.0602 0.0602,0.0602 0.0602,0.14038 0,0.0869 -0.0602,0.14038 -0.0602,0.0535 -0.14038,0.0535 h -1.99205 l 0.0602,-0.0668 v 1.9252 l -0.0334,-0.0401 h 2.26613 q 0.0802,0 0.14037,0.0602 0.0602,0.0602 0.0602,0.14038 0,0.0869 -0.0602,0.14038 -0.0602,0.0535 -0.14037,0.0535 h -2.4533 q -0.0802,0 -0.14038,-0.0602 -0.0602,-0.0602 -0.0602,-0.14038 v -4.27823 q 0,-0.0802 0.0602,-0.14038 0.0602,-0.0602 0.14038,-0.0602 z m 3.30226,4.13785 q -0.0535,-0.0802 -0.0535,-0.15375 0.007,-0.0802 0.0869,-0.12701 0.0535,-0.0468 0.12032,-0.0401 0.0735,0.007 0.1337,0.0668 0.18049,0.23397 0.43451,0.38103 0.2607,0.14038 0.61499,0.14038 0.18718,0 0.36766,-0.0602 0.18718,-0.0669 0.3075,-0.19386 0.12033,-0.1337 0.12033,-0.33424 0,-0.20722 -0.12033,-0.33423 -0.12032,-0.12701 -0.31418,-0.20055 -0.18717,-0.0735 -0.40109,-0.12701 -0.22728,-0.0602 -0.44119,-0.13369 -0.21391,-0.0802 -0.38103,-0.19386 -0.16043,-0.12032 -0.2607,-0.28744 -0.10027,-0.16712 -0.10027,-0.40777 0,-0.28076 0.15374,-0.49467 0.15375,-0.21391 0.41446,-0.33424 0.26739,-0.12033 0.60162,-0.12033 0.16712,0 0.36098,0.0468 0.19386,0.0401 0.38103,0.14038 0.18717,0.10027 0.33424,0.27407 0.0602,0.0602 0.0602,0.14038 0,0.0735 -0.0669,0.1337 -0.0535,0.0401 -0.12701,0.0401 -0.0668,0 -0.11364,-0.0535 -0.16043,-0.18049 -0.38103,-0.27408 -0.22059,-0.0936 -0.47461,-0.0936 -0.19386,0 -0.36766,0.0668 -0.16712,0.0602 -0.28076,0.18718 -0.11364,0.12701 -0.11364,0.33423 0.0134,0.19386 0.13369,0.31419 0.12701,0.12032 0.32755,0.20054 0.20723,0.0802 0.46125,0.14706 0.21391,0.0535 0.40777,0.12701 0.20054,0.0735 0.34761,0.18718 0.15374,0.10695 0.24065,0.27407 0.0936,0.16712 0.0936,0.42114 0,0.29413 -0.16712,0.50804 -0.16043,0.21391 -0.4345,0.32755 -0.27408,0.11364 -0.60832,0.11364 -0.36097,0 -0.70189,-0.14038 -0.33424,-0.14038 -0.59495,-0.46793 z m 4.75285,-2.95466 q 0.30082,0 0.55484,0.10696 0.25402,0.10027 0.44119,0.26739 0.19386,0.16043 0.30081,0.34761 0.10696,0.18048 0.10696,0.3476 l -0.11364,-0.16043 v -0.62168 q 0,-0.0869 0.0535,-0.14707 0.0602,-0.0602 0.14706,-0.0602 0.0936,0 0.14707,0.0602 0.0535,0.0602 0.0535,0.14707 v 2.89449 q 0,0.53478 -0.22059,0.90244 -0.2206,0.36766 -0.60163,0.55483 -0.37434,0.19386 -0.85565,0.19386 -0.23396,0 -0.49467,-0.0602 -0.25402,-0.0602 -0.44119,-0.15375 -0.18049,-0.0936 -0.20054,-0.19386 -0.0535,-0.0602 -0.0535,-0.12032 0.007,-0.0535 0.0602,-0.0936 0.0668,-0.0468 0.14038,-0.0134 0.0735,0.0401 0.2206,0.10027 0.0669,0.0201 0.18049,0.0602 0.11364,0.0401 0.26739,0.0668 0.16043,0.0334 0.33423,0.0334 0.60163,0 0.92918,-0.34761 0.33424,-0.34092 0.33424,-0.90244 v -0.64174 l 0.0735,0.0201 q -0.0602,0.24065 -0.20054,0.42114 -0.1337,0.18049 -0.32087,0.3075 -0.18717,0.12032 -0.40777,0.18048 -0.21391,0.0669 -0.42782,0.0669 -0.46125,0 -0.82891,-0.23396 -0.36766,-0.23397 -0.58826,-0.63506 -0.21391,-0.40108 -0.21391,-0.9158 0,-0.50804 0.21391,-0.90913 0.2206,-0.40777 0.58158,-0.63505 0.36766,-0.23397 0.8289,-0.23397 z m 0.0468,0.37435 q -0.36766,0 -0.66179,0.18717 -0.28744,0.18049 -0.45456,0.50136 -0.16044,0.31418 -0.16044,0.71527 0,0.40108 0.16044,0.72195 0.16712,0.32087 0.45456,0.50804 0.29413,0.18049 0.66179,0.18049 0.36766,0 0.6551,-0.18049 0.28745,-0.18049 0.45457,-0.49467 0.16711,-0.32087 0.16711,-0.73532 0,-0.41446 -0.16711,-0.72864 -0.16712,-0.32087 -0.45457,-0.49467 -0.28744,-0.18049 -0.6551,-0.18049 z m 2.90118,3.12177 q -0.0936,0 -0.14707,-0.0602 -0.0535,-0.0602 -0.0535,-0.14038 v -2.99476 q 0,-0.0802 0.0535,-0.14038 0.0602,-0.0602 0.14707,-0.0602 0.0869,0 0.14038,0.0602 0.0602,0.0602 0.0602,0.14038 v 1.00271 l -0.10027,0.02 q 0.02,-0.23396 0.11364,-0.46124 0.10027,-0.23397 0.26739,-0.42783 0.16712,-0.19385 0.3944,-0.31418 0.23396,-0.12033 0.52141,-0.12033 0.12032,0 0.23396,0.0535 0.11364,0.0468 0.11364,0.16044 0,0.10027 -0.0535,0.15375 -0.0535,0.0535 -0.12701,0.0535 -0.0602,0 -0.1337,-0.0334 -0.0668,-0.0334 -0.18049,-0.0334 -0.18717,0 -0.37434,0.11364 -0.18717,0.10695 -0.34092,0.29413 -0.15375,0.18717 -0.24734,0.42113 -0.0869,0.22728 -0.0869,0.46125 v 1.65113 q 0,0.0802 -0.0602,0.14038 -0.0602,0.0602 -0.14038,0.0602 z m 2.7608,-0.20054 q 0,0.0802 -0.0602,0.14038 -0.0602,0.0602 -0.14037,0.0602 -0.0869,0 -0.14707,-0.0602 -0.0535,-0.0602 -0.0535,-0.14038 v -3.07498 q 0,-0.0802 0.0535,-0.14038 0.0602,-0.0602 0.14707,-0.0602 0.0869,0 0.14037,0.0602 0.0602,0.0602 0.0602,0.14038 z m -0.20054,-3.7234 q -0.14038,0 -0.21392,-0.0602 -0.0668,-0.0668 -0.0668,-0.18717 v -0.0669 q 0,-0.12033 0.0735,-0.18049 0.0802,-0.0669 0.21391,-0.0669 0.12701,0 0.19386,0.0669 0.0735,0.0602 0.0735,0.18049 v 0.0669 q 0,0.12032 -0.0735,0.18717 -0.0669,0.0602 -0.20054,0.0602 z m 2.78085,0.4813 q 0.41445,0 0.70858,0.2206 0.29413,0.21391 0.40109,0.64173 l -0.0936,0.0267 0.0401,-0.12032 q 0.0869,-0.20054 0.28744,-0.37435 0.20723,-0.18049 0.46794,-0.28744 0.2607,-0.10696 0.52809,-0.10696 0.42114,0 0.67516,0.18049 0.2607,0.18049 0.37434,0.48799 0.12033,0.30081 0.12033,0.68184 v 1.89178 q 0,0.0802 -0.0602,0.14038 -0.0535,0.0602 -0.14038,0.0602 -0.0869,0 -0.14707,-0.0602 -0.0535,-0.0602 -0.0535,-0.14038 v -1.87173 q 0,-0.27407 -0.0869,-0.50135 -0.0869,-0.22728 -0.27407,-0.36098 -0.18717,-0.13369 -0.50136,-0.13369 -0.27407,0 -0.52809,0.13369 -0.24734,0.1337 -0.40777,0.36098 -0.15375,0.22728 -0.15375,0.50135 v 1.87173 q 0,0.0802 -0.0602,0.14038 -0.0535,0.0602 -0.14038,0.0602 -0.0869,0 -0.14707,-0.0602 -0.0535,-0.0602 -0.0535,-0.14038 v -1.89178 q 0,-0.27407 -0.0802,-0.49467 -0.0802,-0.2206 -0.26071,-0.34761 -0.18048,-0.13369 -0.48798,-0.13369 -0.27408,0 -0.52141,0.13369 -0.24065,0.12701 -0.3944,0.34761 -0.14706,0.2206 -0.14706,0.49467 v 1.89178 q 0,0.0802 -0.0602,0.14038 -0.0602,0.0602 -0.14038,0.0602 -0.0936,0 -0.14706,-0.0602 -0.0535,-0.0602 -0.0535,-0.14038 v -2.99476 q 0,-0.0802 0.0535,-0.14038 0.0602,-0.0602 0.14706,-0.0602 0.0869,0 0.14038,0.0602 0.0602,0.0602 0.0602,0.14038 v 0.62168 l -0.18049,0.24733 q 0.02,-0.20054 0.12701,-0.40108 0.11364,-0.20054 0.29413,-0.36098 0.18048,-0.16043 0.40777,-0.25402 0.23396,-0.10027 0.48798,-0.10027 z m 7.35991,0.0267 q 0.0869,0 0.14038,0.0602 0.0602,0.0602 0.0602,0.14707 v 3.00813 q 0,0.0802 -0.0602,0.14038 -0.0602,0.0602 -0.14038,0.0602 -0.0869,0 -0.14707,-0.0602 -0.0535,-0.0602 -0.0535,-0.14038 v -0.79548 l 0.11364,-0.0535 q 0,0.18717 -0.10695,0.38103 -0.10027,0.19386 -0.28076,0.36098 -0.18049,0.16711 -0.42782,0.27407 -0.24065,0.10027 -0.52141,0.10027 -0.45457,0 -0.81554,-0.23396 -0.35429,-0.23397 -0.56152,-0.64174 -0.20054,-0.40777 -0.20054,-0.91581 0,-0.52141 0.20722,-0.91581 0.20723,-0.40108 0.56152,-0.62836 0.35429,-0.22729 0.80217,-0.22729 0.28745,0 0.53478,0.10028 0.25402,0.10027 0.44119,0.27407 0.18718,0.1738 0.28745,0.40108 0.10695,0.2206 0.10695,0.46125 l -0.14038,-0.10027 v -0.84896 q 0,-0.0869 0.0535,-0.14707 0.0602,-0.0602 0.14707,-0.0602 z m -1.39043,3.10841 q 0.35429,0 0.62837,-0.18049 0.27407,-0.18717 0.42782,-0.50804 0.16043,-0.32755 0.16043,-0.72864 0,-0.3944 -0.16043,-0.70858 -0.15375,-0.31418 -0.42782,-0.50136 -0.27408,-0.18717 -0.62837,-0.18717 -0.34761,0 -0.62837,0.18049 -0.27407,0.18049 -0.4345,0.49467 -0.15375,0.31418 -0.15375,0.72195 0,0.40109 0.15375,0.72864 0.16043,0.32087 0.4345,0.50804 0.27408,0.18049 0.62837,0.18049 z"
       id="text1"
       transform="matrix(4.6847576,0,0,4.6847576,-709.30753,-3175.5437)"
       aria-label="Escuela de Esgrima" /></g><g
     transform="matrix(0.02475279,0,0,-0.02475279,-42.190343,234.85519)"
     fill="#000000"
     stroke="none"
     id="g3"
     style="fill:#acf7c1;fill-opacity:1;stroke:none;stroke-width:16;stroke-dasharray:none;stroke-opacity:1"><path
       d="m 5063,8809 c 33,-36 34,-53 2,-84 -35,-36 -96,-35 -124,1 -30,38 -26,68 11,99 38,32 71,28 111,-16 z m 1,-161 c 3,-13 8,-227 11,-475 l 7,-453 h -54 c -29,0 -63,-3 -75,-6 l -23,-6 3,468 c 1,258 6,475 10,482 5,7 30,12 62,12 49,0 55,-3 59,-22 z m -316,-530 c 2,-104 1,-117 -15,-122 -10,-2 -58,-12 -108,-21 -351,-63 -683,-203 -955,-404 -104,-77 -341,-317 -426,-431 -212,-285 -342,-589 -410,-962 -21,-117 -30,-428 -15,-558 28,-246 90,-458 199,-684 164,-337 387,-609 687,-837 84,-63 350,-211 469,-261 75,-31 76,-35 28,-75 -24,-20 -57,-60 -74,-89 -16,-30 -31,-54 -33,-54 -18,0 -239,101 -320,146 -257,143 -531,390 -744,672 -180,238 -318,531 -396,842 -62,249 -69,305 -69,540 0,416 76,755 246,1097 119,242 234,399 447,616 239,244 414,366 726,505 236,106 592,203 725,198 l 35,-1 z m 692,101 c 101,-15 312,-76 450,-130 346,-136 612,-325 875,-626 149,-169 207,-251 312,-433 188,-327 299,-691 320,-1047 l 6,-113 h -121 c -67,0 -122,3 -122,8 -1,64 -26,265 -46,367 -35,171 -87,331 -167,501 -76,165 -118,236 -232,389 -158,213 -358,409 -540,528 -235,153 -554,274 -812,308 l -93,13 v 128 129 l 53,-6 c 28,-3 81,-10 117,-16 z m -12,-791 c 42,-97 95,-327 122,-528 18,-128 22,-223 26,-540 3,-220 10,-406 16,-434 11,-48 10,-50 -19,-76 -17,-15 -72,-52 -124,-83 -202,-119 -420,-318 -681,-622 -231,-269 -368,-398 -516,-489 l -93,-58 -54,23 c -30,12 -55,27 -55,33 0,6 26,29 57,51 130,93 297,305 396,501 73,147 144,380 178,591 26,161 37,593 20,783 -24,258 -99,557 -191,758 -61,135 -68,159 -44,164 10,1 223,3 474,3 h 455 z m 509,36 c 49,-32 115,-217 154,-433 19,-102 22,-175 29,-596 5,-264 7,-481 6,-482 -5,-5 -369,-24 -373,-19 -2,2 -4,181 -3,397 0,217 -5,450 -11,519 -10,113 -95,577 -114,624 -8,19 -3,19 141,12 104,-5 156,-11 171,-22 z m -1632,-89 c 100,-197 160,-386 208,-650 31,-176 32,-187 32,-470 0,-306 -7,-380 -52,-583 -71,-327 -205,-586 -403,-782 -53,-52 -122,-110 -153,-129 l -58,-34 -36,19 c -101,53 -246,225 -342,404 -135,255 -188,513 -178,868 5,196 34,401 72,515 7,23 23,74 34,112 23,81 121,282 178,367 96,144 209,254 360,352 78,50 236,117 268,113 14,-1 34,-30 70,-102 z M 6283,5657 c -6,-140 2,-186 48,-279 32,-62 116,-155 210,-230 78,-63 113,-107 97,-123 -2,-2 -26,3 -53,11 -41,13 -85,15 -245,10 -222,-6 -308,-21 -534,-91 -331,-103 -553,-218 -994,-516 -296,-201 -524,-324 -619,-336 l -53,-6 52,99 c 50,95 52,103 56,190 l 4,91 66,32 c 36,18 100,58 141,89 101,76 333,308 457,457 363,439 735,679 1119,724 39,5 112,9 162,10 l 93,1 z m 1107,8 c 0,-75 -39,-304 -74,-437 -67,-257 -163,-471 -315,-698 -108,-161 -138,-197 -296,-359 -170,-174 -335,-301 -523,-402 -131,-71 -250,-125 -257,-117 -1,2 -10,28 -19,59 -8,30 -27,72 -41,93 -14,20 -25,41 -25,45 0,5 55,36 123,69 326,160 586,389 799,702 123,182 202,335 265,515 45,129 104,379 111,470 l 7,90 85,7 c 47,3 99,11 115,16 37,11 45,1 45,-53 z M 5085,4278 c 3,-35 5,-115 3,-178 l -3,-115 -72,-1 c -59,-1 -73,2 -77,15 -2,9 -6,72 -8,141 l -3,125 70,37 c 39,21 73,38 77,38 3,0 9,-28 13,-62 z m 215,-469 c 41,-10 117,-39 168,-65 77,-38 108,-60 174,-127 89,-90 122,-147 132,-223 l 6,-51 -121,-6 c -158,-9 -867,-9 -1178,0 l -243,6 4,57 c 14,194 241,375 533,424 113,20 423,11 525,-15 z m -751,-674 c 98,-69 148,-90 274,-116 124,-26 289,-28 397,-5 90,19 197,70 265,127 48,39 52,41 100,34 27,-3 67,-10 88,-16 45,-12 44,-24 -11,-107 -63,-96 -193,-174 -385,-232 -107,-32 -108,-32 -285,-28 -169,4 -181,6 -267,37 -169,61 -287,125 -340,183 -39,44 -95,133 -95,153 0,3 21,5 48,6 26,0 56,4 67,9 40,17 67,9 144,-45 z m 528,-795 c -13,-667 -28,-951 -58,-1055 l -11,-39 -15,27 c -8,16 -21,78 -28,140 -16,122 -35,714 -35,1060 v 217 l 77,-2 76,-3 z"
       id="path1"
       style="fill:#acf7c1;fill-opacity:1;stroke:none;stroke-width:16;stroke-dasharray:none;stroke-opacity:1"
       sodipodi:nodetypes="ccccccccsccccscccccccccccscscccsccccccccccccscccccccccccccccccccccsccccccscccccsccccccccsccccccccccccccccsccccccccccccccccscccccccscccccccsccccccccscccccccccccccccccccccccsccccccccscccc" /><path
       d="m 5073,6281 c -87,-55 -101,-157 -32,-236 66,-74 172,-66 227,18 67,100 6,224 -115,234 -36,3 -56,-1 -80,-16 z"
       id="path2"
       style="fill:#acf7c1;fill-opacity:1;stroke:none;stroke-width:16;stroke-dasharray:none;stroke-opacity:1" /><path
       d="m 4073,7241 c -142,-75 -227,-157 -343,-326 -115,-170 -201,-401 -241,-650 -18,-109 -18,-516 -1,-615 36,-199 105,-393 185,-522 55,-88 176,-232 199,-236 20,-4 141,109 207,192 56,72 144,233 161,295 6,24 23,69 36,100 30,67 87,318 105,456 17,137 17,534 1,665 -21,164 -58,313 -113,460 -56,152 -87,214 -109,217 -8,2 -48,-15 -87,-36 z"
       id="path3"
       style="fill:#9cdeaf;fill-opacity:1;stroke:none;stroke-width:16;stroke-dasharray:none;stroke-opacity:1" /></g></svg>
