<?xml version="1.0" encoding="UTF-8" standalone="no"?>
<svg
   version="1.0"
   width="600"
   height="300"
   viewBox="0 0 449.99999 225"
   preserveAspectRatio="xMidYMid"
   id="svg3"
   sodipodi:docname="muxika-esgrima-completo.svg"
   inkscape:version="1.4 (e7c3feb100, 2024-10-09)"
   inkscape:export-filename="LOGO-ESGRIMA-PALETA-COLORES-03.png"
   inkscape:export-xdpi="96"
   inkscape:export-ydpi="96"
   xml:space="preserve"
   xmlns:inkscape="http://www.inkscape.org/namespaces/inkscape"
   xmlns:sodipodi="http://sodipodi.sourceforge.net/DTD/sodipodi-0.dtd"
   xmlns="http://www.w3.org/2000/svg"
   xmlns:svg="http://www.w3.org/2000/svg"><defs
     id="defs3" /><sodipodi:namedview
     id="namedview3"
     pagecolor="#ffffff"
     bordercolor="#000000"
     borderopacity="0.25"
     inkscape:showpageshadow="2"
     inkscape:pageopacity="0.0"
     inkscape:pagecheckerboard="0"
     inkscape:deskcolor="#d1d1d1"
     inkscape:document-units="pt"
     inkscape:zoom="0.59326172"
     inkscape:cx="191.31523"
     inkscape:cy="187.10123"
     inkscape:window-width="1920"
     inkscape:window-height="1012"
     inkscape:window-x="0"
     inkscape:window-y="0"
     inkscape:window-maximized="1"
     inkscape:current-layer="g1"><inkscape:page
       x="0"
       y="0"
       width="450"
       height="225"
       id="page2"
       margin="0"
       bleed="0" /></sodipodi:namedview><g
     id="g1"
     transform="matrix(0.80572899,0,0,0.80572899,30.398221,23.891282)"><path
       style="font-size:48px;font-family:Philosopher;-inkscape-font-specification:Philosopher;white-space:pre;inline-size:173.517;fill:#acf7c1;fill-rule:evenodd;stroke:#000000;stroke-width:0.0160162"
       d="m 227.46956,711.37484 q -3.456,0 -5.424,-1.104 -1.92,-1.056 -2.688,-3.312 -0.768,-2.304 -0.768,-5.904 v -18.48 l -12,26.64 h -0.96 l -12.48,-27.12 v 27.12 h -1.92 v -31.68 h 4.56 l 11.52,24.96 11.28,-24.96 h 4.32 v 23.52 q 0,4.368 1.104,6.864 1.104,2.496 3.456,2.496 z m 12.33598,-1.68 q -2.016,0 -3.888,-0.72 -1.872,-0.72 -3.072,-2.592 -1.2,-1.872 -1.2,-5.328 v -8.64 q 0,-2.16 -0.624,-3.456 -0.576,-1.344 -2.736,-1.344 h -0.48 v -0.96 h 3.84 q 1.68,0 2.592,0.432 0.96,0.432 1.344,1.68 0.384,1.248 0.384,3.648 v 8.64 q 0,2.4 0.768,3.84 0.768,1.392 1.968,2.016 1.248,0.624 2.544,0.624 1.44,0 2.64,-0.768 1.248,-0.768 2.16,-1.776 v -18.336 h 4.32 v 22.56 h -2.4 l -1.68,-1.92 h -0.24 q -0.912,0.912 -2.496,1.68 -1.584,0.72 -3.744,0.72 z m 15.83999,-0.48 7.68,-10.8 -4.176,-6.96 q -2.016,-3.504 -4.944,-3.84 v -0.96 h 4.08 q 1.632,0 2.976,1.056 1.392,1.008 2.448,2.784 l 2.976,5.04 6.24,-8.88 h 2.4 l -7.68,10.8 4.176,6.96 q 1.968,3.456 5.184,3.84 v 0.96 h -4.32 q -1.632,0 -3.024,-1.008 -1.344,-1.056 -2.4,-2.832 l -2.976,-5.04 -6.24,8.88 z m 27.60004,-25.44 q -1.104,0 -1.92,-0.912 -0.768,-0.912 -0.768,-2.16 0,-1.008 0.576,-1.584 0.624,-0.576 1.632,-0.576 1.104,0 1.872,0.912 0.816,0.912 0.816,2.16 0,1.008 -0.624,1.584 -0.576,0.576 -1.584,0.576 z m -1.824,25.44 v -16.8 q 0,-2.16 -0.624,-3.456 -0.576,-1.344 -2.736,-1.344 h -0.96 v -0.96 h 4.32 q 1.68,0 2.592,0.432 0.96,0.432 1.344,1.68 0.384,1.248 0.384,3.648 v 16.8 z m 28.656,0.48 q -1.824,0 -3.6,-0.816 -1.728,-0.864 -3.36,-3.024 l -5.76,-7.68 v 11.04 h -4.32 v -25.92 q 0,-2.16 -0.624,-3.456 -0.576,-1.344 -2.736,-1.344 h -0.96 v -0.96 h 4.32 q 1.68,0 2.592,0.432 0.96,0.432 1.344,1.68 0.384,1.248 0.384,3.648 v 14.16 l 6,-7.68 q 1.104,-1.392 2.496,-2.256 1.392,-0.864 3.744,-0.864 h 1.44 v 1.2 q -1.248,0 -2.448,0.528 -1.2,0.528 -2.112,1.632 l -5.28,6.72 6,7.68 q 1.392,1.824 2.592,2.736 1.248,0.912 2.688,1.152 v 0.912 q -0.384,0.192 -1.056,0.336 -0.624,0.144 -1.344,0.144 z m 11.61603,0 q -1.008,0 -2.208,-0.336 -1.152,-0.288 -2.256,-1.056 -1.104,-0.768 -1.824,-2.064 -0.672,-1.296 -0.672,-3.264 0,-2.64 1.68,-4.08 1.728,-1.44 4.512,-2.016 2.832,-0.624 6.048,-0.624 h 1.44 q 0,-3.36 -0.672,-5.088 -0.672,-1.776 -1.824,-2.4 -1.104,-0.672 -2.544,-0.672 -2.016,0 -3.408,0.864 -1.344,0.864 -1.872,3.216 h -2.16 q 0,-1.248 0.144,-2.304 0.144,-1.104 1.056,-2.016 0.912,-0.912 2.976,-1.296 2.064,-0.384 4.224,-0.384 1.632,0 3.12,0.384 1.536,0.384 2.688,1.44 1.2,1.008 1.872,3.024 0.72,1.968 0.72,5.232 v 12.96 h -2.4 l -1.68,-2.16 h -0.24 q -0.72,0.912 -2.352,1.776 -1.632,0.864 -4.368,0.864 z m 2.16,-2.16 q 1.776,0 2.784,-0.864 1.056,-0.912 1.776,-2.016 v -6.48 h -1.44 q -3.6,0 -5.664,1.344 -2.016,1.296 -2.016,3.456 0,2.352 1.392,3.456 1.392,1.104 3.168,1.104 z"
       id="text6"
       transform="matrix(2.2071414,0,0,2.2071414,-251.89131,-1449.8864)"
       aria-label="Muxika" /><path
       style="font-size:6.68474px;font-family:Quicksand;-inkscape-font-specification:Quicksand;white-space:pre;inline-size:173.517;fill:#acf7c1;fill-rule:evenodd;stroke-width:8.42938"
       d="m 171.21814,125.19055 h 12.92487 q 0.42253,0 0.73958,0.31716 0.31715,0.28186 0.31715,0.73957 0,0.45782 -0.31715,0.73957 -0.31716,0.28186 -0.73958,0.28186 h -12.11486 l 0.35245,-0.59875 v 9.8962 l -0.38722,-0.45782 h 10.56533 q 0.42252,0 0.73957,0.31715 0.31716,0.31716 0.31716,0.73958 0,0.45782 -0.31716,0.73957 -0.31715,0.28186 -0.73957,0.28186 h -10.49489 l 0.31715,-0.35193 v 10.14265 l -0.17596,-0.21126 h 11.93879 q 0.42253,0 0.73958,0.31716 0.31715,0.31715 0.31715,0.73957 0,0.45782 -0.31715,0.73957 -0.31716,0.28186 -0.73958,0.28186 h -12.92487 q -0.42252,0 -0.73957,-0.31716 -0.31716,-0.31715 -0.31716,-0.73957 v -22.53927 q 0,-0.42252 0.31716,-0.73957 0.31715,-0.31715 0.73957,-0.31715 z m 17.39756,21.7997 q -0.28186,-0.42253 -0.28186,-0.81001 0.0369,-0.42253 0.45782,-0.66914 0.28186,-0.24656 0.63394,-0.21126 0.38723,0.0369 0.70433,0.35193 0.95089,1.23264 2.28916,2.0074 1.37346,0.73957 3.24004,0.73957 0.98608,0 1.93696,-0.31715 0.98608,-0.35246 1.61997,-1.02133 0.63395,-0.70438 0.63395,-1.76089 0,-1.09171 -0.63395,-1.76085 -0.63389,-0.66913 -1.65521,-1.05657 -0.98608,-0.38722 -2.11304,-0.66913 -1.19739,-0.31716 -2.3244,-0.70433 -1.12695,-0.42252 -2.0074,-1.02133 -0.84521,-0.63389 -1.37346,-1.51433 -0.52826,-0.88045 -0.52826,-2.14828 0,-1.47915 0.81001,-2.60611 0.81001,-1.12695 2.18347,-1.76089 1.40871,-0.63395 3.16961,-0.63395 0.88044,0 1.90172,0.24656 1.02132,0.21127 2.0074,0.73958 0.98613,0.52826 1.7609,1.4439 0.31715,0.31715 0.31715,0.73957 0,0.38722 -0.35192,0.70438 -0.28186,0.21126 -0.66914,0.21126 -0.35245,0 -0.59869,-0.28186 -0.84526,-0.95088 -2.00746,-1.44395 -1.16215,-0.49312 -2.50042,-0.49312 -1.02132,0 -1.93696,0.35193 -0.88045,0.31715 -1.47915,0.98613 -0.5987,0.66914 -0.5987,1.76085 0.0706,1.02132 0.70433,1.65526 0.66914,0.63389 1.72571,1.05652 1.09171,0.42252 2.42998,0.77477 1.12695,0.28185 2.14828,0.66913 1.05651,0.38723 1.83133,0.98613 0.81001,0.56345 1.26783,1.4439 0.49312,0.88045 0.49312,2.21872 0,1.54958 -0.88039,2.67654 -0.84526,1.12696 -2.28916,1.72565 -1.44395,0.5987 -3.2048,0.5987 -1.90177,0 -3.69786,-0.73957 -1.7609,-0.73958 -3.13436,-2.46523 z m 25.46231,-15.56622 q 1.69046,0 3.09917,0.38722 1.4087,0.35193 2.25391,0.98608 0.88045,0.63389 0.88045,1.37346 0,0.35193 -0.24656,0.70438 -0.24656,0.31716 -0.66914,0.31716 -0.42252,0 -0.70438,-0.21126 -0.24656,-0.21126 -0.52826,-0.49312 -0.24656,-0.28186 -0.73957,-0.52826 -0.45782,-0.21126 -1.30302,-0.38723 -0.84526,-0.17596 -1.93697,-0.17596 -1.97221,0 -3.55699,0.98608 -1.58477,0.98613 -2.50047,2.67654 -0.91564,1.65527 -0.91564,3.73311 0,2.11303 0.88045,3.80349 0.88045,1.69046 2.42998,2.67654 1.54958,0.95089 3.62742,0.95089 1.40871,0 2.18353,-0.24656 0.77477,-0.24656 1.33827,-0.56345 0.66913,-0.38723 0.95083,-0.73957 0.31716,-0.38723 0.81001,-0.38723 0.45783,0 0.66914,0.28186 0.24656,0.24656 0.24656,0.66913 0,0.56351 -0.84526,1.26783 -0.81001,0.66914 -2.25391,1.1974 -1.4439,0.49312 -3.31048,0.49312 -2.64129,0 -4.6487,-1.23259 -1.97221,-1.23264 -3.09916,-3.34573 -1.09177,-2.14822 -1.09177,-4.82476 0,-2.57091 1.12701,-4.68395 1.12696,-2.11308 3.13436,-3.38091 2.0426,-1.30308 4.71914,-1.30308 z m 23.77191,0.52831 q 0.45782,0 0.73957,0.31715 0.31715,0.31716 0.31715,0.73958 v 9.93133 q 0,3.48655 -1.97215,5.31789 -1.97222,1.83133 -5.31789,1.83133 -3.31043,0 -5.28264,-1.83133 -1.93697,-1.83134 -1.93697,-5.31789 v -9.93133 q 0,-0.42253 0.28186,-0.73958 0.31716,-0.31715 0.77477,-0.31715 0.45782,0 0.73957,0.31715 0.31715,0.31716 0.31715,0.73958 v 9.93133 q 0,2.53572 1.33827,3.87399 1.37352,1.30302 3.76831,1.30302 2.43003,0 3.80349,-1.30302 1.37352,-1.33827 1.37352,-3.87399 v -9.93133 q 0,-0.42253 0.28185,-0.73958 0.28186,-0.31715 0.77477,-0.31715 z m 14.72096,18.2427 q -2.71173,0 -4.78957,-1.1622 -2.07785,-1.16214 -3.24005,-3.23999 -1.16214,-2.07784 -1.16214,-4.86006 0,-2.99348 1.16214,-5.10652 1.1974,-2.11309 3.06393,-3.24004 1.90177,-1.1622 4.0148,-1.1622 1.54959,0 2.99354,0.5635 1.47915,0.52826 2.6061,1.62002 1.16215,1.05652 1.83134,2.6061 0.70432,1.54959 0.77476,3.59218 -0.0369,0.42253 -0.35192,0.73958 -0.31716,0.28185 -0.73958,0.28185 h -14.12227 l -0.42252,-1.90177 h 13.87576 l -0.45782,0.42252 v -0.70432 q -0.14066,-1.65527 -1.05651,-2.81742 -0.91565,-1.1622 -2.21872,-1.7609 -1.30308,-0.59869 -2.71179,-0.59869 -1.05651,0 -2.18347,0.42252 -1.09176,0.42252 -2.0074,1.33827 -0.88045,0.88045 -1.4439,2.2891 -0.56351,1.37352 -0.56351,3.27529 0,2.07784 0.8452,3.76825 0.84526,1.69046 2.43004,2.67654 1.62002,0.98613 3.83874,0.98613 1.23258,0 2.21871,-0.35193 0.98608,-0.35245 1.72566,-0.91564 0.73957,-0.59875 1.23258,-1.23264 0.38723,-0.31715 0.77482,-0.31715 0.35193,0 0.5987,0.28186 0.28186,0.28185 0.28186,0.63394 0,0.42252 -0.35246,0.73957 -1.05652,1.26783 -2.74697,2.21872 -1.69046,0.91564 -3.69787,0.91564 z m 14.08708,-1.4087 q 0,0.42252 -0.31716,0.73957 -0.31716,0.31716 -0.73957,0.31716 -0.45782,0 -0.77477,-0.31716 -0.28186,-0.31716 -0.28186,-0.73957 v -23.94798 q 0,-0.42252 0.31716,-0.73957 0.31716,-0.31716 0.73957,-0.31716 0.45782,0 0.73958,0.31716 0.31715,0.31715 0.31715,0.73957 z m 20.53186,-16.93969 q 0.45782,0 0.73957,0.31716 0.31716,0.31716 0.31716,0.77482 v 15.84792 q 0,0.42252 -0.31716,0.73957 -0.31715,0.31716 -0.73957,0.31716 -0.45782,0 -0.77477,-0.31716 -0.28185,-0.31715 -0.28185,-0.73957 v -4.19088 l 0.59869,-0.28186 q 0,0.98608 -0.56345,2.00741 -0.52831,1.02132 -1.47914,1.90177 -0.95089,0.8804 -2.25397,1.4439 -1.26783,0.52826 -2.74697,0.52826 -2.39479,0 -4.29651,-1.23259 -1.86658,-1.23263 -2.95829,-3.38092 -1.05657,-2.14828 -1.05657,-4.82481 0,-2.74698 1.09176,-4.82482 1.09176,-2.11304 2.95829,-3.31043 1.86653,-1.19745 4.22612,-1.19745 1.51434,0 2.81742,0.52831 1.33827,0.52826 2.32435,1.4439 0.98608,0.91564 1.51434,2.11304 0.5635,1.1622 0.5635,2.43003 l -0.73957,-0.52826 v -4.47263 q 0,-0.45782 0.28185,-0.77482 0.31716,-0.31715 0.77477,-0.31715 z m -7.32524,16.37624 q 1.86653,0 3.31043,-0.95089 1.44395,-0.98608 2.25396,-2.67654 0.84521,-1.72565 0.84521,-3.83874 0,-2.07784 -0.84521,-3.73306 -0.81001,-1.65521 -2.25396,-2.64134 -1.4439,-0.98608 -3.31043,-0.98608 -1.83133,0 -3.31048,0.95088 -1.4439,0.95089 -2.28916,2.60611 -0.81001,1.65521 -0.81001,3.80349 0,2.11309 0.81001,3.83874 0.84526,1.69046 2.28916,2.67654 1.44395,0.95089 3.31048,0.95089 z m 38.28161,-24.44105 q 0.45782,0 0.73957,0.31716 0.31716,0.28186 0.31716,0.73957 v 23.94798 q 0,0.42252 -0.31716,0.73957 -0.31715,0.31716 -0.73957,0.31716 -0.45782,0 -0.77476,-0.31716 -0.28186,-0.31715 -0.28186,-0.73957 v -4.19088 l 0.5987,-0.49312 q 0,0.98608 -0.52826,2.07784 -0.52826,1.05652 -1.51434,1.97222 -0.95089,0.91564 -2.25396,1.47914 -1.26784,0.56345 -2.74698,0.56345 -2.3596,0 -4.26132,-1.23258 -1.86653,-1.23264 -2.95829,-3.34573 -1.09176,-2.11303 -1.09176,-4.82477 0,-2.67654 1.09176,-4.78962 1.09176,-2.14828 2.95829,-3.34568 1.86653,-1.23264 4.22613,-1.23264 1.4439,0 2.74697,0.52832 1.30303,0.52825 2.28916,1.4439 1.02127,0.91564 1.58478,2.11303 0.59869,1.1622 0.59869,2.43003 l -0.73957,-0.52826 v -12.57268 q 0,-0.42252 0.28186,-0.73957 0.31715,-0.31716 0.77476,-0.31716 z m -7.32523,24.44105 q 1.90172,0 3.31042,-0.95089 1.44396,-0.98608 2.25391,-2.64135 0.84526,-1.69046 0.84526,-3.83868 0,-2.11309 -0.84526,-3.76831 -0.80995,-1.69046 -2.25391,-2.64134 -1.4439,-0.98608 -3.31042,-0.98608 -1.83134,0 -3.31049,0.98608 -1.4439,0.95088 -2.28915,2.64134 -0.81001,1.65522 -0.81001,3.76831 0,2.11303 0.81001,3.80349 0.84525,1.69046 2.28915,2.67654 1.47915,0.95089 3.31049,0.95089 z m 22.04625,1.97215 q -2.71179,0 -4.78963,-1.1622 -2.07784,-1.16214 -3.23999,-3.23999 -1.1622,-2.07784 -1.1622,-4.86006 0,-2.99348 1.1622,-5.10652 1.1974,-2.11309 3.06392,-3.24004 1.90178,-1.1622 4.01481,-1.1622 1.54959,0 2.99349,0.5635 1.47914,0.52826 2.6061,1.62002 1.1622,1.05652 1.83133,2.6061 0.70438,1.54959 0.77482,3.59218 -0.0369,0.42253 -0.35193,0.73958 -0.31715,0.28185 -0.73957,0.28185 h -14.12227 l -0.42252,-1.90177 h 13.87576 l -0.45782,0.42252 v -0.70432 q -0.14066,-1.65527 -1.05657,-2.81742 -0.91564,-1.1622 -2.21866,-1.7609 -1.30308,-0.59869 -2.71179,-0.59869 -1.05652,0 -2.18347,0.42252 -1.09176,0.42252 -2.00741,1.33827 -0.88044,0.88045 -1.44395,2.2891 -0.56345,1.37352 -0.56345,3.27529 0,2.07784 0.8452,3.76825 0.84521,1.69046 2.43004,2.67654 1.62002,0.98613 3.83868,0.98613 1.23264,0 2.21872,-0.35193 0.98613,-0.35245 1.72571,-0.91564 0.73952,-0.59875 1.23258,-1.23264 0.38723,-0.31715 0.77482,-0.31715 0.35193,0 0.5987,0.28186 0.28185,0.28185 0.28185,0.63394 0,0.42252 -0.35192,0.73957 -1.05657,1.26783 -2.74698,2.21872 -1.69046,0.91564 -3.69786,0.91564 z m 22.96195,-25.00449 h 12.92487 q 0.42252,0 0.73952,0.31716 0.31716,0.28186 0.31716,0.73957 0,0.45782 -0.31716,0.73957 -0.31715,0.28186 -0.73952,0.28186 h -12.11491 l 0.35192,-0.59875 v 9.8962 l -0.38722,-0.45782 h 10.56528 q 0.42252,0 0.73957,0.31715 0.31716,0.31716 0.31716,0.73958 0,0.45782 -0.31716,0.73957 -0.31715,0.28186 -0.73957,0.28186 h -10.49484 l 0.31715,-0.35193 v 10.14265 l -0.17596,-0.21126 h 11.93879 q 0.42253,0 0.73952,0.31716 0.31716,0.31715 0.31716,0.73957 0,0.45782 -0.31716,0.73957 -0.31715,0.28186 -0.73952,0.28186 h -12.92487 q -0.42252,0 -0.73957,-0.31716 -0.31716,-0.31715 -0.31716,-0.73957 v -22.53927 q 0,-0.42252 0.31716,-0.73957 0.31715,-0.31715 0.73957,-0.31715 z m 17.3975,21.7997 q -0.28186,-0.42253 -0.28186,-0.81001 0.0369,-0.42253 0.45782,-0.66914 0.28186,-0.24656 0.63389,-0.21126 0.38723,0.0369 0.70438,0.35193 0.95089,1.23264 2.28916,2.0074 1.37346,0.73957 3.23999,0.73957 0.98613,0 1.93697,-0.31715 0.98613,-0.35246 1.62002,-1.02133 0.63394,-0.70438 0.63394,-1.76089 0,-1.09171 -0.63394,-1.76085 -0.63389,-0.66913 -1.65522,-1.05657 -0.98607,-0.38722 -2.11308,-0.66913 -1.1974,-0.31716 -2.32435,-0.70433 -1.12696,-0.42252 -2.00741,-1.02133 -0.8452,-0.63389 -1.37346,-1.51433 -0.52826,-0.88045 -0.52826,-2.14828 0,-1.47915 0.80996,-2.60611 0.81001,-1.12695 2.18353,-1.76089 1.4087,-0.63395 3.16955,-0.63395 0.88045,0 1.90177,0.24656 1.02133,0.21127 2.00741,0.73958 0.98608,0.52826 1.76089,1.4439 0.31716,0.31715 0.31716,0.73957 0,0.38722 -0.35245,0.70438 -0.28186,0.21126 -0.66914,0.21126 -0.35192,0 -0.5987,-0.28186 -0.8452,-0.95088 -2.0074,-1.44395 -1.16215,-0.49312 -2.50042,-0.49312 -1.02132,0 -1.93696,0.35193 -0.88045,0.31715 -1.47915,0.98613 -0.5987,0.66914 -0.5987,1.76085 0.0706,1.02132 0.70433,1.65526 0.66914,0.63389 1.72565,1.05652 1.09177,0.42252 2.43004,0.77477 1.12695,0.28185 2.14828,0.66913 1.05651,0.38723 1.83133,0.98613 0.80996,0.56345 1.26783,1.4439 0.49312,0.88045 0.49312,2.21872 0,1.54958 -0.88045,2.67654 -0.8452,1.12696 -2.2891,1.72565 -1.44395,0.5987 -3.20485,0.5987 -1.90172,0 -3.69781,-0.73957 -1.7609,-0.73958 -3.13441,-2.46523 z m 25.03974,-15.56622 q 1.58483,0 2.9231,0.5635 1.33827,0.52826 2.32435,1.40871 1.02132,0.8452 1.58477,1.83133 0.56351,0.95084 0.56351,1.83129 l -0.5987,-0.84521 v -3.27523 q 0,-0.45782 0.28186,-0.77482 0.31715,-0.31716 0.77476,-0.31716 0.49312,0 0.77482,0.31716 0.28186,0.31715 0.28186,0.77482 v 15.24922 q 0,2.81742 -1.16215,4.75438 -1.1622,1.93697 -3.1696,2.92305 -1.97216,1.02132 -4.50788,1.02132 -1.23259,0 -2.6061,-0.31715 -1.33827,-0.31716 -2.32435,-0.81001 -0.95089,-0.49312 -1.05652,-1.02133 -0.28185,-0.31715 -0.28185,-0.63389 0.0369,-0.28186 0.31715,-0.49312 0.35193,-0.24656 0.73957,-0.0706 0.38723,0.21126 1.16221,0.52826 0.35245,0.10589 0.95088,0.31715 0.5987,0.21126 1.40871,0.35193 0.8452,0.17596 1.76084,0.17596 3.16961,0 4.89526,-1.83133 1.7609,-1.79609 1.7609,-4.75439 v -3.38091 l 0.38722,0.10589 q -0.31715,1.26783 -1.05651,2.21872 -0.70438,0.95088 -1.69046,1.62002 -0.98608,0.63389 -2.14828,0.95083 -1.12696,0.35246 -2.25391,0.35246 -2.43004,0 -4.367,-1.23259 -1.93697,-1.23264 -3.09917,-3.34573 -1.12696,-2.11303 -1.12696,-4.82476 0,-2.67654 1.12696,-4.78963 1.1622,-2.14828 3.06397,-3.34567 1.93697,-1.23264 4.36695,-1.23264 z m 0.24656,1.97221 q -1.93697,0 -3.48655,0.98608 -1.51434,0.95088 -2.39479,2.64134 -0.84525,1.65522 -0.84525,3.76831 0,2.11303 0.84525,3.80349 0.88045,1.69046 2.39479,2.67654 1.54958,0.95089 3.48655,0.95089 1.93697,0 3.4513,-0.95089 1.51439,-0.95089 2.39484,-2.6061 0.8804,-1.69046 0.8804,-3.87393 0,-2.18353 -0.8804,-3.83874 -0.88045,-1.69046 -2.39484,-2.60611 -1.51433,-0.95088 -3.4513,-0.95088 z m 15.28447,16.44661 q -0.49312,0 -0.77482,-0.31715 -0.28186,-0.31716 -0.28186,-0.73957 v -15.77749 q 0,-0.42252 0.28186,-0.73957 0.31715,-0.31715 0.77482,-0.31715 0.45782,0 0.73957,0.31715 0.31716,0.31716 0.31716,0.73957 v 5.28264 l -0.52826,0.10537 q 0.10536,-1.23258 0.59869,-2.42998 0.52826,-1.23264 1.40871,-2.25396 0.88045,-1.02127 2.07784,-1.65522 1.23259,-0.63394 2.74698,-0.63394 0.63389,0 1.23259,0.28186 0.59869,0.24656 0.59869,0.84526 0,0.52825 -0.28185,0.81001 -0.28186,0.28185 -0.66914,0.28185 -0.31715,0 -0.70438,-0.17596 -0.35193,-0.17596 -0.95089,-0.17596 -0.98607,0 -1.97215,0.59869 -0.98608,0.56346 -1.79609,1.54959 -0.81002,0.98608 -1.30308,2.21866 -0.45782,1.1974 -0.45782,2.43004 v 8.69875 q 0,0.42252 -0.31716,0.73957 -0.31715,0.31716 -0.73957,0.31716 z m 14.54489,-1.05651 q 0,0.42252 -0.31715,0.73957 -0.31716,0.31716 -0.73952,0.31716 -0.45782,0 -0.77482,-0.31716 -0.28186,-0.31716 -0.28186,-0.73957 v -16.20011 q 0,-0.42253 0.28186,-0.73958 0.31716,-0.31715 0.77482,-0.31715 0.45782,0 0.73952,0.31715 0.31715,0.31716 0.31715,0.73958 z m -1.05651,-19.61622 q -0.73958,0 -1.12701,-0.31716 -0.35193,-0.35193 -0.35193,-0.98608 v -0.35245 q 0,-0.63395 0.38723,-0.95089 0.42252,-0.35245 1.12695,-0.35245 0.66914,0 1.02133,0.35245 0.38722,0.31716 0.38722,0.95089 v 0.35245 q 0,0.63389 -0.38722,0.98608 -0.35246,0.31716 -1.05652,0.31716 z m 14.65052,2.53566 q 2.18348,0 3.73306,1.1622 1.54958,1.12695 2.11309,3.38087 l -0.49312,0.14066 0.21126,-0.63389 q 0.45782,-1.05652 1.51434,-1.97221 1.09176,-0.95089 2.46528,-1.51434 1.37346,-0.5635 2.78217,-0.5635 2.21871,0 3.55698,0.95088 1.37347,0.95089 1.97216,2.57091 0.63394,1.58478 0.63394,3.59218 v 9.96659 q 0,0.42252 -0.31715,0.73957 -0.28186,0.31715 -0.73957,0.31715 -0.45783,0 -0.77482,-0.31715 -0.28186,-0.31716 -0.28186,-0.73957 v -9.86096 q 0,-1.4439 -0.45782,-2.64129 -0.45782,-1.19739 -1.4439,-1.90177 -0.98608,-0.70433 -2.64135,-0.70433 -1.4439,0 -2.78217,0.70433 -1.30307,0.70438 -2.14828,1.90177 -0.81001,1.19739 -0.81001,2.64129 v 9.86096 q 0,0.42252 -0.31715,0.73957 -0.28186,0.31715 -0.73958,0.31715 -0.45782,0 -0.77481,-0.31715 -0.28186,-0.31716 -0.28186,-0.73957 v -9.96659 q 0,-1.4439 -0.42252,-2.6061 -0.42253,-1.1622 -1.37352,-1.83133 -0.95083,-0.70433 -2.57085,-0.70433 -1.44396,0 -2.74698,0.70433 -1.26783,0.66913 -2.07784,1.83133 -0.77477,1.1622 -0.77477,2.6061 v 9.96659 q 0,0.42252 -0.31716,0.73957 -0.31715,0.31715 -0.73957,0.31715 -0.49312,0 -0.77476,-0.31715 -0.28186,-0.31716 -0.28186,-0.73957 v -15.77749 q 0,-0.42252 0.28186,-0.73957 0.31715,-0.31715 0.77476,-0.31715 0.45782,0 0.73957,0.31715 0.31716,0.31716 0.31716,0.73957 v 3.27524 l -0.95089,1.30302 q 0.10537,-1.05651 0.66914,-2.11303 0.5987,-1.05652 1.54958,-1.90177 0.95084,-0.84521 2.14828,-1.33827 1.23259,-0.52826 2.57086,-0.52826 z m 38.77468,0.14066 q 0.45782,0 0.73957,0.31716 0.31716,0.31715 0.31716,0.77482 v 15.84792 q 0,0.42252 -0.31716,0.73957 -0.31715,0.31716 -0.73957,0.31716 -0.45782,0 -0.77482,-0.31716 -0.28186,-0.31716 -0.28186,-0.73957 v -4.19088 l 0.5987,-0.28186 q 0,0.98608 -0.56345,2.00741 -0.52826,1.02132 -1.47915,1.90177 -0.95088,0.8804 -2.25391,1.4439 -1.26783,0.52826 -2.74698,0.52826 -2.39483,0 -4.29656,-1.23259 -1.86652,-1.23264 -2.95829,-3.38092 -1.05651,-2.14828 -1.05651,-4.82482 0,-2.74697 1.09171,-4.82481 1.09176,-2.11304 2.95829,-3.31043 1.86653,-1.19745 4.22612,-1.19745 1.51439,0 2.81741,0.52831 1.33827,0.52826 2.32435,1.4439 0.98614,0.91564 1.51439,2.11304 0.56346,1.1622 0.56346,2.43003 l -0.73958,-0.52826 v -4.47263 q 0,-0.45782 0.28186,-0.77482 0.31716,-0.31715 0.77482,-0.31715 z m -7.32529,16.37624 q 1.86653,0 3.31048,-0.95089 1.4439,-0.98608 2.25391,-2.67654 0.8452,-1.72565 0.8452,-3.83874 0,-2.07784 -0.8452,-3.73306 -0.81001,-1.65521 -2.25391,-2.64134 -1.44395,-0.98608 -3.31048,-0.98608 -1.83134,0 -3.31048,0.95088 -1.4439,0.95089 -2.28911,2.60611 -0.81001,1.65521 -0.81001,3.80349 0,2.11309 0.81001,3.83874 0.84521,1.69046 2.28911,2.67654 1.44395,0.95089 3.31048,0.95089 z"
       id="text1"
       aria-label="Escuela de Esgrima" /></g><g
     transform="matrix(0.02475279,0,0,-0.02475279,-42.190343,234.85519)"
     fill="#000000"
     stroke="none"
     id="g3"
     style="fill:#acf7c1;fill-opacity:1;stroke:none;stroke-width:16;stroke-dasharray:none;stroke-opacity:1"><path
       d="m 5063,8809 c 33,-36 34,-53 2,-84 -35,-36 -96,-35 -124,1 -30,38 -26,68 11,99 38,32 71,28 111,-16 z m 1,-161 c 3,-13 8,-227 11,-475 l 7,-453 h -54 c -29,0 -63,-3 -75,-6 l -23,-6 3,468 c 1,258 6,475 10,482 5,7 30,12 62,12 49,0 55,-3 59,-22 z m -316,-530 c 2,-104 1,-117 -15,-122 -10,-2 -58,-12 -108,-21 -351,-63 -683,-203 -955,-404 -104,-77 -341,-317 -426,-431 -212,-285 -342,-589 -410,-962 -21,-117 -30,-428 -15,-558 28,-246 90,-458 199,-684 164,-337 387,-609 687,-837 84,-63 350,-211 469,-261 75,-31 76,-35 28,-75 -24,-20 -57,-60 -74,-89 -16,-30 -31,-54 -33,-54 -18,0 -239,101 -320,146 -257,143 -531,390 -744,672 -180,238 -318,531 -396,842 -62,249 -69,305 -69,540 0,416 76,755 246,1097 119,242 234,399 447,616 239,244 414,366 726,505 236,106 592,203 725,198 l 35,-1 z m 692,101 c 101,-15 312,-76 450,-130 346,-136 612,-325 875,-626 149,-169 207,-251 312,-433 188,-327 299,-691 320,-1047 l 6,-113 h -121 c -67,0 -122,3 -122,8 -1,64 -26,265 -46,367 -35,171 -87,331 -167,501 -76,165 -118,236 -232,389 -158,213 -358,409 -540,528 -235,153 -554,274 -812,308 l -93,13 v 128 129 l 53,-6 c 28,-3 81,-10 117,-16 z m -12,-791 c 42,-97 95,-327 122,-528 18,-128 22,-223 26,-540 3,-220 10,-406 16,-434 11,-48 10,-50 -19,-76 -17,-15 -72,-52 -124,-83 -202,-119 -420,-318 -681,-622 -231,-269 -368,-398 -516,-489 l -93,-58 -54,23 c -30,12 -55,27 -55,33 0,6 26,29 57,51 130,93 297,305 396,501 73,147 144,380 178,591 26,161 37,593 20,783 -24,258 -99,557 -191,758 -61,135 -68,159 -44,164 10,1 223,3 474,3 h 455 z m 509,36 c 49,-32 115,-217 154,-433 19,-102 22,-175 29,-596 5,-264 7,-481 6,-482 -5,-5 -369,-24 -373,-19 -2,2 -4,181 -3,397 0,217 -5,450 -11,519 -10,113 -95,577 -114,624 -8,19 -3,19 141,12 104,-5 156,-11 171,-22 z m -1632,-89 c 100,-197 160,-386 208,-650 31,-176 32,-187 32,-470 0,-306 -7,-380 -52,-583 -71,-327 -205,-586 -403,-782 -53,-52 -122,-110 -153,-129 l -58,-34 -36,19 c -101,53 -246,225 -342,404 -135,255 -188,513 -178,868 5,196 34,401 72,515 7,23 23,74 34,112 23,81 121,282 178,367 96,144 209,254 360,352 78,50 236,117 268,113 14,-1 34,-30 70,-102 z M 6283,5657 c -6,-140 2,-186 48,-279 32,-62 116,-155 210,-230 78,-63 113,-107 97,-123 -2,-2 -26,3 -53,11 -41,13 -85,15 -245,10 -222,-6 -308,-21 -534,-91 -331,-103 -553,-218 -994,-516 -296,-201 -524,-324 -619,-336 l -53,-6 52,99 c 50,95 52,103 56,190 l 4,91 66,32 c 36,18 100,58 141,89 101,76 333,308 457,457 363,439 735,679 1119,724 39,5 112,9 162,10 l 93,1 z m 1107,8 c 0,-75 -39,-304 -74,-437 -67,-257 -163,-471 -315,-698 -108,-161 -138,-197 -296,-359 -170,-174 -335,-301 -523,-402 -131,-71 -250,-125 -257,-117 -1,2 -10,28 -19,59 -8,30 -27,72 -41,93 -14,20 -25,41 -25,45 0,5 55,36 123,69 326,160 586,389 799,702 123,182 202,335 265,515 45,129 104,379 111,470 l 7,90 85,7 c 47,3 99,11 115,16 37,11 45,1 45,-53 z M 5085,4278 c 3,-35 5,-115 3,-178 l -3,-115 -72,-1 c -59,-1 -73,2 -77,15 -2,9 -6,72 -8,141 l -3,125 70,37 c 39,21 73,38 77,38 3,0 9,-28 13,-62 z m 215,-469 c 41,-10 117,-39 168,-65 77,-38 108,-60 174,-127 89,-90 122,-147 132,-223 l 6,-51 -121,-6 c -158,-9 -867,-9 -1178,0 l -243,6 4,57 c 14,194 241,375 533,424 113,20 423,11 525,-15 z m -751,-674 c 98,-69 148,-90 274,-116 124,-26 289,-28 397,-5 90,19 197,70 265,127 48,39 52,41 100,34 27,-3 67,-10 88,-16 45,-12 44,-24 -11,-107 -63,-96 -193,-174 -385,-232 -107,-32 -108,-32 -285,-28 -169,4 -181,6 -267,37 -169,61 -287,125 -340,183 -39,44 -95,133 -95,153 0,3 21,5 48,6 26,0 56,4 67,9 40,17 67,9 144,-45 z m 528,-795 c -13,-667 -28,-951 -58,-1055 l -11,-39 -15,27 c -8,16 -21,78 -28,140 -16,122 -35,714 -35,1060 v 217 l 77,-2 76,-3 z"
       id="path1"
       style="fill:#acf7c1;fill-opacity:1;stroke:none;stroke-width:16;stroke-dasharray:none;stroke-opacity:1"
       sodipodi:nodetypes="ccccccccsccccscccccccccccscscccsccccccccccccscccccccccccccccccccccsccccccscccccsccccccccsccccccccccccccccsccccccccccccccccscccccccscccccccsccccccccscccccccccccccccccccccccsccccccccscccc" /><path
       d="m 5073,6281 c -87,-55 -101,-157 -32,-236 66,-74 172,-66 227,18 67,100 6,224 -115,234 -36,3 -56,-1 -80,-16 z"
       id="path2"
       style="fill:#acf7c1;fill-opacity:1;stroke:none;stroke-width:16;stroke-dasharray:none;stroke-opacity:1" /><path
       d="m 4073,7241 c -142,-75 -227,-157 -343,-326 -115,-170 -201,-401 -241,-650 -18,-109 -18,-516 -1,-615 36,-199 105,-393 185,-522 55,-88 176,-232 199,-236 20,-4 141,109 207,192 56,72 144,233 161,295 6,24 23,69 36,100 30,67 87,318 105,456 17,137 17,534 1,665 -21,164 -58,313 -113,460 -56,152 -87,214 -109,217 -8,2 -48,-15 -87,-36 z"
       id="path3"
       style="fill:#9cdeaf;fill-opacity:1;stroke:none;stroke-width:16;stroke-dasharray:none;stroke-opacity:1" /></g></svg>
