<?xml version="1.0" encoding="UTF-8" standalone="no"?>
<svg
   version="1.0"
   width="600"
   height="300"
   viewBox="0 0 449.99999 225"
   preserveAspectRatio="xMidYMid"
   id="svg3"
   sodipodi:docname="muxika-esgrima-completo.svg"
   inkscape:version="1.4 (e7c3feb100, 2024-10-09)"
   inkscape:export-filename="LOGO-ESGRIMA-PALETA-COLORES-03.png"
   inkscape:export-xdpi="96"
   inkscape:export-ydpi="96"
   xml:space="preserve"
   xmlns:inkscape="http://www.inkscape.org/namespaces/inkscape"
   xmlns:sodipodi="http://sodipodi.sourceforge.net/DTD/sodipodi-0.dtd"
   xmlns="http://www.w3.org/2000/svg"
   xmlns:svg="http://www.w3.org/2000/svg"><defs
     id="defs3" /><sodipodi:namedview
     id="namedview3"
     pagecolor="#ffffff"
     bordercolor="#000000"
     borderopacity="0.25"
     inkscape:showpageshadow="2"
     inkscape:pageopacity="0.0"
     inkscape:pagecheckerboard="0"
     inkscape:deskcolor="#d1d1d1"
     inkscape:document-units="pt"
     inkscape:zoom="0.59326172"
     inkscape:cx="188.78683"
     inkscape:cy="185.41564"
     inkscape:window-width="1920"
     inkscape:window-height="1012"
     inkscape:window-x="0"
     inkscape:window-y="0"
     inkscape:window-maximized="1"
     inkscape:current-layer="svg3"><inkscape:page
       x="0"
       y="0"
       width="450"
       height="225"
       id="page2"
       margin="0"
       bleed="0" /></sodipodi:namedview><g
     id="g1"
     transform="matrix(0.80572899,0,0,0.80572899,30.398221,23.891282)"><text
       xml:space="preserve"
       style="font-size:48px;text-align:start;writing-mode:lr-tb;direction:ltr;text-anchor:start;white-space:pre;inline-size:173.517;display:inline;fill:#acf7c1;fill-opacity:1;fill-rule:evenodd;stroke:#000000;stroke-width:0.0160162;stroke-dasharray:none;stroke-opacity:1"
       x="187.10123"
       y="709.21484"
       id="text6"
       transform="matrix(2.2071414,0,0,2.2071414,-251.89131,-1449.8864)"
       inkscape:export-filename="muxika-esgrima-textopng"
       inkscape:export-xdpi="96"
       inkscape:export-ydpi="96"><tspan
         x="187.10123"
         y="709.21484"
         id="tspan6"><tspan
           style="font-family:Philosopher;-inkscape-font-specification:Philosopher"
           id="tspan1">Muxika</tspan></tspan></text><text
       xml:space="preserve"
       style="font-size:6.68474px;text-align:start;writing-mode:lr-tb;direction:ltr;text-anchor:start;white-space:pre;inline-size:173.517;display:inline;fill:#acf7c1;fill-opacity:1;fill-rule:evenodd;stroke-width:1.6"
       x="187.10123"
       y="709.21484"
       id="text1"
       transform="matrix(4.6847576,0,0,4.6847576,-709.30753,-3175.5437)"><tspan
         x="187.10123"
         y="709.21484"
         id="tspan8"><tspan
           style="font-family:Quicksand;-inkscape-font-specification:Quicksand"
           id="tspan7">Escuela de Esgrima</tspan></tspan></text></g><g
     transform="matrix(0.02475279,0,0,-0.02475279,-42.190343,234.85519)"
     fill="#000000"
     stroke="none"
     id="g3"
     style="fill:#acf7c1;fill-opacity:1;stroke:none;stroke-width:16;stroke-dasharray:none;stroke-opacity:1"><path
       d="m 5063,8809 c 33,-36 34,-53 2,-84 -35,-36 -96,-35 -124,1 -30,38 -26,68 11,99 38,32 71,28 111,-16 z m 1,-161 c 3,-13 8,-227 11,-475 l 7,-453 h -54 c -29,0 -63,-3 -75,-6 l -23,-6 3,468 c 1,258 6,475 10,482 5,7 30,12 62,12 49,0 55,-3 59,-22 z m -316,-530 c 2,-104 1,-117 -15,-122 -10,-2 -58,-12 -108,-21 -351,-63 -683,-203 -955,-404 -104,-77 -341,-317 -426,-431 -212,-285 -342,-589 -410,-962 -21,-117 -30,-428 -15,-558 28,-246 90,-458 199,-684 164,-337 387,-609 687,-837 84,-63 350,-211 469,-261 75,-31 76,-35 28,-75 -24,-20 -57,-60 -74,-89 -16,-30 -31,-54 -33,-54 -18,0 -239,101 -320,146 -257,143 -531,390 -744,672 -180,238 -318,531 -396,842 -62,249 -69,305 -69,540 0,416 76,755 246,1097 119,242 234,399 447,616 239,244 414,366 726,505 236,106 592,203 725,198 l 35,-1 z m 692,101 c 101,-15 312,-76 450,-130 346,-136 612,-325 875,-626 149,-169 207,-251 312,-433 188,-327 299,-691 320,-1047 l 6,-113 h -121 c -67,0 -122,3 -122,8 -1,64 -26,265 -46,367 -35,171 -87,331 -167,501 -76,165 -118,236 -232,389 -158,213 -358,409 -540,528 -235,153 -554,274 -812,308 l -93,13 v 128 129 l 53,-6 c 28,-3 81,-10 117,-16 z m -12,-791 c 42,-97 95,-327 122,-528 18,-128 22,-223 26,-540 3,-220 10,-406 16,-434 11,-48 10,-50 -19,-76 -17,-15 -72,-52 -124,-83 -202,-119 -420,-318 -681,-622 -231,-269 -368,-398 -516,-489 l -93,-58 -54,23 c -30,12 -55,27 -55,33 0,6 26,29 57,51 130,93 297,305 396,501 73,147 144,380 178,591 26,161 37,593 20,783 -24,258 -99,557 -191,758 -61,135 -68,159 -44,164 10,1 223,3 474,3 h 455 z m 509,36 c 49,-32 115,-217 154,-433 19,-102 22,-175 29,-596 5,-264 7,-481 6,-482 -5,-5 -369,-24 -373,-19 -2,2 -4,181 -3,397 0,217 -5,450 -11,519 -10,113 -95,577 -114,624 -8,19 -3,19 141,12 104,-5 156,-11 171,-22 z m -1632,-89 c 100,-197 160,-386 208,-650 31,-176 32,-187 32,-470 0,-306 -7,-380 -52,-583 -71,-327 -205,-586 -403,-782 -53,-52 -122,-110 -153,-129 l -58,-34 -36,19 c -101,53 -246,225 -342,404 -135,255 -188,513 -178,868 5,196 34,401 72,515 7,23 23,74 34,112 23,81 121,282 178,367 96,144 209,254 360,352 78,50 236,117 268,113 14,-1 34,-30 70,-102 z M 6283,5657 c -6,-140 2,-186 48,-279 32,-62 116,-155 210,-230 78,-63 113,-107 97,-123 -2,-2 -26,3 -53,11 -41,13 -85,15 -245,10 -222,-6 -308,-21 -534,-91 -331,-103 -553,-218 -994,-516 -296,-201 -524,-324 -619,-336 l -53,-6 52,99 c 50,95 52,103 56,190 l 4,91 66,32 c 36,18 100,58 141,89 101,76 333,308 457,457 363,439 735,679 1119,724 39,5 112,9 162,10 l 93,1 z m 1107,8 c 0,-75 -39,-304 -74,-437 -67,-257 -163,-471 -315,-698 -108,-161 -138,-197 -296,-359 -170,-174 -335,-301 -523,-402 -131,-71 -250,-125 -257,-117 -1,2 -10,28 -19,59 -8,30 -27,72 -41,93 -14,20 -25,41 -25,45 0,5 55,36 123,69 326,160 586,389 799,702 123,182 202,335 265,515 45,129 104,379 111,470 l 7,90 85,7 c 47,3 99,11 115,16 37,11 45,1 45,-53 z M 5085,4278 c 3,-35 5,-115 3,-178 l -3,-115 -72,-1 c -59,-1 -73,2 -77,15 -2,9 -6,72 -8,141 l -3,125 70,37 c 39,21 73,38 77,38 3,0 9,-28 13,-62 z m 215,-469 c 41,-10 117,-39 168,-65 77,-38 108,-60 174,-127 89,-90 122,-147 132,-223 l 6,-51 -121,-6 c -158,-9 -867,-9 -1178,0 l -243,6 4,57 c 14,194 241,375 533,424 113,20 423,11 525,-15 z m -751,-674 c 98,-69 148,-90 274,-116 124,-26 289,-28 397,-5 90,19 197,70 265,127 48,39 52,41 100,34 27,-3 67,-10 88,-16 45,-12 44,-24 -11,-107 -63,-96 -193,-174 -385,-232 -107,-32 -108,-32 -285,-28 -169,4 -181,6 -267,37 -169,61 -287,125 -340,183 -39,44 -95,133 -95,153 0,3 21,5 48,6 26,0 56,4 67,9 40,17 67,9 144,-45 z m 528,-795 c -13,-667 -28,-951 -58,-1055 l -11,-39 -15,27 c -8,16 -21,78 -28,140 -16,122 -35,714 -35,1060 v 217 l 77,-2 76,-3 z"
       id="path1"
       style="fill:#acf7c1;fill-opacity:1;stroke:none;stroke-width:16;stroke-dasharray:none;stroke-opacity:1"
       sodipodi:nodetypes="ccccccccsccccscccccccccccscscccsccccccccccccscccccccccccccccccccccsccccccscccccsccccccccsccccccccccccccccsccccccccccccccccscccccccscccccccsccccccccscccccccccccccccccccccccsccccccccscccc" /><path
       d="m 5073,6281 c -87,-55 -101,-157 -32,-236 66,-74 172,-66 227,18 67,100 6,224 -115,234 -36,3 -56,-1 -80,-16 z"
       id="path2"
       style="fill:#acf7c1;fill-opacity:1;stroke:none;stroke-width:16;stroke-dasharray:none;stroke-opacity:1" /><path
       d="m 4073,7241 c -142,-75 -227,-157 -343,-326 -115,-170 -201,-401 -241,-650 -18,-109 -18,-516 -1,-615 36,-199 105,-393 185,-522 55,-88 176,-232 199,-236 20,-4 141,109 207,192 56,72 144,233 161,295 6,24 23,69 36,100 30,67 87,318 105,456 17,137 17,534 1,665 -21,164 -58,313 -113,460 -56,152 -87,214 -109,217 -8,2 -48,-15 -87,-36 z"
       id="path3"
       style="fill:#9cdeaf;fill-opacity:1;stroke:none;stroke-width:16;stroke-dasharray:none;stroke-opacity:1" /></g></svg>
